<!--Scalable Vector Graphic-->
<!--svg xmlns="http://www.w3.org/2000/svg" 
     xmlns:xlink="http://www.w3.org/1999/xlink"  
     width="960px" 
     height="560px" 
     viewBox="0 0 960px 560px">
</svg-->

<svg xmlns="http://www.w3.org/2000/svg" xmlns:xlink="http://www.w3.org/1999/xlink" x="0px" y="0px" viewBox="0 0 40 40" style="enable-background:new 0 0 40 40;" xml:space="preserve"><g><path fill="#231815" class="stt0" d="M33.3,5H6.7C5.7,5,5,5.7,5,6.7v26.7C5,34.3,5.7,35,6.7,35H21V23.4h-3.9v-4.5H21v-3.3c0-3.9,2.4-6,5.8-6c1.7,0,3.1,0.1,3.5,0.2v4l-2.4,0c-1.9,0-2.2,0.9-2.2,2.2v2.9h4.5l-0.6,4.5h-3.9V35h7.6c0.9,0,1.7-0.7,1.7-1.7V6.7C35,5.7,34.3,5,33.3,5z"/><path fill="rgba(255,255,255,0)" id="f" class="stt1" d="M25.7,35V23.4h3.9l0.6-4.5h-4.5V16c0-1.3,0.4-2.2,2.2-2.2l2.4,0v-4c-0.4-0.1-1.8-0.2-3.5-0.2c-3.5,0-5.8,2.1-5.8,6v3.3h-.9v4.5H21V35H25.7z"/></g></svg>

