<?xml version="1.0" encoding="utf-8"?>
<!-- Generator: Adobe Illustrator 26.0.1, SVG Export Plug-In . SVG Version: 6.00 Build 0)  -->
<svg version="1.1" id="レイヤー_1" xmlns="http://www.w3.org/2000/svg" xmlns:xlink="http://www.w3.org/1999/xlink" x="0px"
	 y="0px" viewBox="0 0 400 800" style="enable-background:new 0 0 400 800;" xml:space="preserve">
<style type="text/css">
	.st0{fill:#FFFFFF;}
</style>
<g>
	<path class="st0" d="M87.41,79.97c5,2.71,7.75,5.05,8.27,7.03c0.52,1.98-0.78,4.53-3.9,7.65c-2.29,2.71-4.01,9.84-5.15,21.39
		c-1.15,11.55-1.51,28.06-1.09,49.49c0.2,14.16,0.26,25.92,0.16,35.29c-0.11,9.37-0.37,17.17-0.78,23.42
		c-0.42,6.25-1.15,11.4-2.19,15.46c-1.04,4.06-2.29,7.76-3.75,11.09c-1.67,3.75-3.23,5.67-4.68,5.78c-1.46,0.11-3.12-1.72-5-5.46
		c-2.92-6.25-3.96-13.53-3.12-21.86c-6.67,0.62-12.86,1.2-18.58,1.72c-5.73,0.52-11.5,1.2-17.33,2.03
		c-1.87,10.2-4.22,16.29-7.03,18.27c-2.81,1.98-5.15,1.41-7.03-1.72c-2.92-5.62-4.58-10.88-5-15.77c-0.42-4.89,0.1-9.21,1.56-12.96
		c1.87-5.41,3.38-14.47,4.53-27.17c1.14-12.7,1.72-29.67,1.72-50.9c0-25.19-2.71-42.05-8.12-50.59c-2.5-3.95-2.19-6.61,0.94-7.96
		c3.12-1.35,8.95,0.26,17.49,4.84c7.07-0.83,13.79-2.44,20.14-4.84c6.35-2.39,11.6-4.94,15.77-7.65c2.29-1.87,4.94-2.7,7.96-2.5
		C76.22,74.25,80.96,76.22,87.41,79.97z M67.43,218.93c1.04-8.32,1.77-17.22,2.19-26.7c0.41-9.47,0.62-20.45,0.62-32.94
		c-6.67,1.67-13.27,2.86-19.83,3.59c-6.56,0.73-12.23,1.09-17.02,1.09c-0.42,9.16-0.73,18.58-0.94,28.26
		c-0.21,9.68-0.62,19.73-1.25,30.13c5.83-1.45,12.33-2.55,19.52-3.28C57.9,218.36,63.47,218.31,67.43,218.93z M33.7,156.48
		c4.37-1.66,8.17-2.97,11.4-3.9c3.23-0.94,6.19-1.56,8.9-1.87c2.7-0.31,5.36-0.31,7.96,0c2.6,0.31,5.36,0.89,8.28,1.72
		c0-7.91,0-16.29,0-25.14c0-8.85-0.21-17.22-0.62-25.14c0-4.58-0.99-7.54-2.97-8.9c-1.98-1.35-5.26-1.51-9.84-0.47
		c-4.37,1.04-8.54,2.03-12.49,2.97c-3.96,0.94-7.81,1.82-11.55,2.65c0.41,7.29,0.67,15.93,0.78,25.92
		C33.65,134.31,33.7,145.03,33.7,156.48z M197.64,168.34c6.04-1.04,11.6-2.03,16.71-2.97c5.1-0.94,9.73-1.82,13.89-2.65
		c4.16-0.83,7.75-1.51,10.77-2.03c3.02-0.52,5.83-0.67,8.43-0.47c2.6,0.21,5.2,0.78,7.81,1.72c2.6,0.94,5.57,2.34,8.9,4.22
		c6.66,3.54,9.21,6.56,7.65,9.06c-1.56,2.5-7.96,3.54-19.21,3.12c-8.54-0.42-17.02-0.52-25.45-0.31
		c-8.43,0.21-18.27,0.83-29.51,1.87c0.21,5.42,0.41,10.88,0.62,16.39c0.21,5.52,0.47,10.67,0.78,15.46
		c0.31,4.79,0.57,9.01,0.78,12.65c0.21,3.64,0.52,6.2,0.94,7.65c0.62,8.54,1.04,15.61,1.25,21.23c0.21,5.62,0,10.62-0.62,14.99
		c-0.62,4.37-1.83,8.48-3.59,12.33c-1.77,3.85-4.21,8.28-7.34,13.27c-2.92,4.37-5.62,6.56-8.12,6.56s-4.68-1.56-6.56-4.68
		c-1.67-2.71-3.38-5.26-5.15-7.65c-1.77-2.4-3.85-4.74-6.24-7.03c-2.4-2.29-5.21-4.68-8.43-7.18c-3.23-2.5-7.13-5.21-11.71-8.12
		c-3.33-2.29-4.68-4.22-4.06-5.78c0.62-1.56,2.7-1.72,6.25-0.47c7.49,1.87,13.48,3.18,17.96,3.9c4.47,0.73,7.91,0.94,10.3,0.62
		c2.39-0.31,4.01-1.14,4.84-2.5c0.83-1.35,1.45-3.07,1.87-5.15c0.83-9.57,1.25-20.19,1.25-31.85c0-11.66-0.42-25.92-1.25-42.78
		c-11.04,1.25-19.94,2.34-26.7,3.28c-6.77,0.94-12.33,1.77-16.71,2.5c-4.37,0.73-7.91,1.36-10.62,1.87
		c-2.71,0.52-5.52,1.09-8.43,1.72c-6.04,1.67-11.09,2.14-15.15,1.41c-4.06-0.73-8.38-2.65-12.96-5.78c-2.92-2.08-4.22-3.69-3.9-4.84
		c0.31-1.14,2.03-1.72,5.15-1.72c3.95,0,9.1-0.26,15.46-0.78c6.35-0.52,13.43-1.2,21.23-2.03c7.81-0.83,16.13-1.82,24.98-2.97
		c8.85-1.14,17.85-2.34,27.01-3.59c-0.42-9.57-1.25-16.76-2.5-21.55c-1.25-4.79-3.02-8.74-5.31-11.87c-1.46,0-3.64,0.16-6.56,0.47
		c-2.92,0.31-5.99,0.68-9.21,1.09c-3.23,0.42-6.3,0.83-9.21,1.25c-2.92,0.42-5.21,0.73-6.87,0.94c-2.92,0.42-5.26,0.73-7.03,0.94
		c-1.77,0.21-3.39,0.21-4.84,0c-1.46-0.21-2.92-0.57-4.37-1.09c-1.46-0.52-3.23-1.41-5.31-2.65c-3.75-2.08-5.46-3.54-5.15-4.37
		c0.31-0.83,2.76-1.45,7.34-1.87c9.16-0.62,17.02-1.25,23.58-1.87s12.33-1.45,17.33-2.5l0.62-28.1c-8.33,0.62-15.25,1.09-20.77,1.41
		c-5.52,0.31-10.15,0.47-13.9,0.47s-6.92-0.16-9.52-0.47c-2.61-0.31-5.15-0.78-7.65-1.41c-5-1.45-7.45-2.91-7.34-4.37
		c0.1-1.45,2.55-2.39,7.34-2.81c4.37-0.21,8.48-0.47,12.33-0.78c3.85-0.31,7.81-0.67,11.87-1.09c4.06-0.41,8.38-0.94,12.96-1.56
		c4.58-0.62,9.57-1.25,14.99-1.87c0.21-12.91-0.31-22.69-1.56-29.35c-1.25-6.66-3.64-11.97-7.18-15.93
		c-2.71-3.12-3.02-5.51-0.94-7.18c2.08-1.66,5.93-1.56,11.55,0.31c6.25,2.08,11.13,3.96,14.68,5.62c3.54,1.67,5.98,3.33,7.34,5
		c1.35,1.67,1.82,3.39,1.4,5.15c-0.42,1.77-1.36,3.7-2.81,5.78c-1.04,1.67-2.03,4.37-2.96,8.12c-0.94,3.75-1.93,10.2-2.97,19.36
		c5.2-0.83,9.68-1.61,13.43-2.34c3.75-0.73,8.53-1.72,14.36-2.97c3.33-0.83,6.09-1.41,8.28-1.72c2.19-0.31,4.16-0.47,5.93-0.47
		c1.77,0,3.43,0.31,5,0.94c1.56,0.62,3.48,1.46,5.78,2.5c4.16,2.08,6.14,4.17,5.93,6.25c-0.21,2.08-4.06,3.75-11.55,5
		c-4.17,0.62-7.86,1.2-11.09,1.72c-3.23,0.52-6.61,1.04-10.15,1.56c-3.54,0.52-7.45,1.09-11.71,1.72
		c-4.27,0.62-9.42,1.36-15.46,2.19l-0.94,26.54c2.91-0.42,6.61-0.99,11.08-1.72c4.47-0.73,8.48-1.51,12.02-2.34
		c6.04-1.45,10.46-2.03,13.27-1.72c2.81,0.31,5.98,1.62,9.52,3.9c4.16,2.5,5.98,4.84,5.46,7.03c-0.52,2.19-4.21,3.28-11.09,3.28
		c-5,0-10.3,0.21-15.93,0.62c-5.62,0.42-11.45,1.04-17.49,1.87c8.12,2.08,13.06,4.22,14.83,6.4c1.77,2.19,1.92,4.84,0.47,7.96
		c-0.83,2.5-1.46,5.1-1.87,7.81C197.85,160.75,197.64,164.18,197.64,168.34z M147.99,229.23c-1.46,5.62-3.85,8.9-7.18,9.84
		c-3.33,0.94-6.04-0.57-8.12-4.53c-2.71-5.83-5-10.82-6.87-14.99c-1.87-4.16-3.85-9.26-5.93-15.3c-0.83-2.29-0.62-3.85,0.62-4.68
		c1.25-0.83,3.23-0.62,5.93,0.62c9.16,5.42,15.3,10.15,18.42,14.21C147.99,218.46,149.03,223.41,147.99,229.23z"/>
	<path class="st0" d="M275.71,488.6c4.16,1.25,6.29,2.76,6.4,4.53c0.1,1.77-2.45,2.86-7.65,3.28c-13.95,1.04-24.88,1.67-32.79,1.87
		c-7.91,0.21-14.21-0.26-18.89-1.41c-4.68-1.14-8.38-3.02-11.08-5.62c-2.71-2.6-5.93-6.29-9.68-11.08
		c-13.12-17.28-25.09-32.99-35.91-47.15c-10.83-14.15-20.19-26.64-28.1-37.47c-8.54,14.57-17.54,28.37-27.01,41.38
		c-9.48,13.01-19.41,24.93-29.82,35.75c-10.41,10.83-21.13,20.2-32.16,28.1c-11.04,7.91-22.28,13.95-33.73,18.11
		c-4.58,1.67-7.13,1.87-7.65,0.62c-0.52-1.25,1.3-3.23,5.46-5.93c21.44-14.36,40.13-30.96,56.05-49.81
		c15.93-18.84,30.86-40.33,44.81-64.48c4.16-7.28,7.08-14.26,8.74-20.92c1.66-6.66,2.08-11.76,1.25-15.3
		c-1.04-4.79-0.62-7.5,1.25-8.12c1.87-0.62,6.35,1.46,13.43,6.25c7.49,5,11.71,8.85,12.65,11.55c0.94,2.71-0.05,5.21-2.97,7.5
		c-1.25,1.04-2.24,2.03-2.97,2.97c-0.73,0.94-1.83,2.55-3.28,4.84c11.24,12.29,21.23,22.95,29.98,32.01
		c8.74,9.06,16.71,16.86,23.89,23.42c7.18,6.56,13.84,12.08,19.98,16.55c6.14,4.48,12.28,8.38,18.42,11.71
		c6.14,3.33,12.54,6.3,19.21,8.9C260.2,483.24,267.59,485.89,275.71,488.6z M179.53,548.55c-2.71,7.29-5.36,13.79-7.96,19.52
		c-2.61,5.73-5.31,10.77-8.12,15.14c-2.81,4.37-5.73,8.28-8.74,11.71c-3.02,3.44-6.4,6.5-10.15,9.21
		c-6.87,5.41-11.14,7.44-12.8,6.09c-1.67-1.36-0.11-5.05,4.68-11.09c7.28-9.16,13.48-20.14,18.58-32.94
		c5.1-12.8,9.21-25.97,12.34-39.5c0.83-3.12,0.67-5.1-0.47-5.93c-1.15-0.83-3.39-1.14-6.71-0.94c-6.25,0.42-14.57,1.83-24.98,4.22
		c-10.41,2.4-21.23,5.46-32.48,9.21c-5.42,1.87-10.36,2.5-14.83,1.87c-4.48-0.62-9.73-2.91-15.77-6.87
		c-2.92-1.87-4.06-3.48-3.44-4.84c0.62-1.35,2.39-1.92,5.31-1.72c3.54,0.21,8.07,0.11,13.58-0.31c5.51-0.41,11.34-1.04,17.49-1.87
		c6.14-0.83,12.44-1.82,18.89-2.97c6.45-1.14,12.44-2.34,17.96-3.59c5.51-1.25,10.2-2.44,14.05-3.59c3.85-1.14,6.4-2.03,7.65-2.65
		c3.12-1.87,6.35-2.7,9.68-2.5c3.33,0.21,8.01,2.29,14.05,6.25c6.66,4.17,10.15,7.34,10.46,9.52c0.31,2.19-1.2,4.43-4.53,6.71
		C188.69,529.82,184.11,537.1,179.53,548.55z M132.07,481.73c-5,1.04-9.27,1.72-12.8,2.03c-3.54,0.31-6.56,0.42-9.06,0.31
		c-2.5-0.1-4.58-0.42-6.25-0.94c-1.67-0.52-3.23-1.2-4.68-2.03c-3.33-1.87-4.79-3.48-4.37-4.84c0.42-1.35,2.81-2.13,7.18-2.34
		c3.75-0.2,8.28-0.88,13.58-2.03c5.31-1.14,12.33-2.97,21.08-5.46c6.04-1.66,10.51-2.7,13.43-3.12c2.91-0.41,6.04-0.1,9.37,0.94
		c5,1.46,7.7,3.54,8.12,6.25c0.42,2.71-1.87,4.58-6.87,5.62c-5.62,1.25-10.51,2.24-14.68,2.97
		C141.95,479.8,137.27,480.69,132.07,481.73z"/>
</g>
<g>
	<path class="st0" d="M369.11,63.44c1.01,0.63,1.81,1.13,2.38,1.52c0.58,0.39,0.94,0.78,1.08,1.19c0.14,0.41,0.12,0.86-0.07,1.34
		c-0.19,0.48-0.53,1.13-1.01,1.95c-0.29,0.48-0.55,1.19-0.79,2.13c-0.24,0.94-0.43,2.24-0.58,3.9s-0.22,3.77-0.22,6.32
		c0,2.55,0.1,5.7,0.29,9.46c0.14,2.99,0.24,5.5,0.29,7.55c0.05,2.05,0,3.82-0.14,5.31c-0.14,1.49-0.41,2.78-0.79,3.86
		c-0.39,1.08-0.92,2.13-1.59,3.14c-0.72,0.96-1.3,1.44-1.73,1.44c-0.43,0-0.79-0.48-1.08-1.44c-0.1-0.29-0.22-0.71-0.36-1.26
		c-0.14-0.55-0.3-1.16-0.47-1.81s-0.35-1.31-0.54-1.99c-0.19-0.67-0.39-1.27-0.58-1.81c-0.34-1.01-0.67-1.6-1.01-1.77
		c-0.34-0.17-1.04-0.25-2.09-0.25c-1.11,0-2.29,0.07-3.54,0.22c-1.25,0.14-2.99,0.41-5.2,0.79c-1.69,0.24-3.11,0.37-4.26,0.4
		c-1.16,0.02-2.33-0.08-3.54-0.32c-0.34,2.41-0.78,3.78-1.34,4.12c-0.55,0.34-1.17-0.12-1.84-1.37c-0.67-1.25-1.02-2.54-1.05-3.86
		c-0.03-1.32,0.16-2.49,0.54-3.5c0.24-0.62,0.46-1.78,0.65-3.47c0.19-1.68,0.35-3.61,0.47-5.78c0.12-2.17,0.17-4.44,0.14-6.82
		c-0.02-2.38-0.13-4.63-0.33-6.75c-0.05-0.72-0.14-1.53-0.29-2.42c-0.14-0.89-0.3-1.73-0.47-2.53c-0.17-0.79-0.35-1.5-0.54-2.13
		c-0.19-0.62-0.39-1.03-0.58-1.23c-0.53-0.62-0.88-1.14-1.05-1.55c-0.17-0.41-0.1-0.69,0.22-0.83c0.31-0.14,0.91-0.13,1.8,0.04
		c0.89,0.17,2.15,0.52,3.79,1.05c1.11,0,2.49-0.1,4.15-0.29c1.66-0.19,3.33-0.43,5.02-0.72c1.68-0.29,3.25-0.61,4.69-0.98
		c1.44-0.36,2.5-0.71,3.18-1.05c0.91-0.43,1.7-0.76,2.35-0.98c0.65-0.22,1.28-0.32,1.88-0.32c0.6,0,1.23,0.13,1.88,0.4
		C367.49,62.58,368.25,62.96,369.11,63.44z M364.85,101.2c0.19-1.01,0.35-2.23,0.47-3.65c0.12-1.42,0.22-2.94,0.29-4.55
		c0.07-1.61,0.11-3.27,0.11-4.98c0-1.71,0-3.38,0-5.02c-11.22,2.17-18.17,2.96-20.87,2.38c-0.1,2.6-0.23,5.25-0.4,7.94
		c-0.17,2.7-0.37,5.27-0.61,7.73c0.96,0.1,2.31,0.02,4.04-0.22c1.73-0.24,3.68-0.62,5.85-1.16c1.59-0.38,2.85-0.65,3.79-0.79
		s1.72-0.14,2.35,0c0.62,0.14,1.19,0.47,1.7,0.98c0.5,0.51,1.09,1.22,1.77,2.13C364.2,102.33,364.71,102.07,364.85,101.2z
		 M356.55,81.56c1.25-0.29,2.32-0.52,3.21-0.69c0.89-0.17,1.68-0.26,2.38-0.29c0.7-0.02,1.32,0,1.88,0.07
		c0.55,0.07,1.09,0.21,1.62,0.4c-0.05-2.02-0.12-3.85-0.22-5.49c-0.1-1.64-0.22-2.96-0.36-3.97c-0.19-1.2-0.37-2.14-0.54-2.82
		c-0.17-0.67-0.41-1.18-0.72-1.52c-0.31-0.34-0.76-0.53-1.34-0.58c-0.58-0.05-1.37-0.05-2.38,0c-1.4,0.1-3.13,0.3-5.2,0.61
		c-2.07,0.31-4.21,0.69-6.43,1.12c-0.96,0.19-1.77,0.34-2.42,0.43c-0.65,0.1-1.34,0.05-2.06-0.14c0.34,1.54,0.59,3.64,0.76,6.28
		c0.17,2.65,0.23,5.54,0.18,8.67c0.82,0.05,2.2-0.12,4.15-0.51C351.02,82.77,353.51,82.24,356.55,81.56z"/>
	<path class="st0" d="M358.28,154.13c1.44,0.96,2.48,1.78,3.11,2.46c0.62,0.67,0.94,1.32,0.94,1.95c0,0.63-0.07,1.25-0.22,1.88
		c-0.67,2.6-1.01,5.9-1.01,9.89c0,4.62,0.94,7.45,2.82,8.48c1.88,1.03,4.07,1.55,6.57,1.55s4.89-0.21,7.15-0.61
		c2.26-0.41,3.85-0.97,4.77-1.7c0.91-0.72,1.65-1.85,2.2-3.39c0.55-1.54,1.12-3.92,1.7-7.15c0.24-1.16,0.49-1.73,0.76-1.73
		c0.26,0,0.42,0.58,0.47,1.73c0.19,3.23,0.89,6.52,2.09,9.89c0.19,0.48,0.29,0.92,0.29,1.3c0,1.68-1.73,3.18-5.2,4.48
		s-7.46,1.95-11.99,1.95c-2.84,0-5.42-0.39-7.73-1.16c-2.31-0.77-3.95-1.85-4.91-3.25c-0.96-1.4-1.59-2.65-1.88-3.75
		c-0.29-1.11-0.43-2.68-0.43-4.73c0-2.05,0.06-3.85,0.18-5.42c0.12-1.56,0.18-3.31,0.18-5.23c0-1.92-0.12-3.38-0.36-4.37
		c-0.24-0.99-0.77-1.91-1.59-2.78c-1.25,0.14-3.56,0.51-6.93,1.08c2.41,1.73,3.61,2.96,3.61,3.68c0,0.29-0.22,0.73-0.65,1.34
		c-0.43,0.6-0.96,1.62-1.59,3.07c-1.64,3.75-3.9,7.15-6.79,10.18s-5.99,5.4-9.32,7.11c-3.32,1.71-5.44,2.56-6.35,2.56
		c-0.34,0-0.51-0.16-0.51-0.47c0-0.31,0.36-0.71,1.08-1.19c2.46-1.4,5.29-3.5,8.52-6.32c3.22-2.82,5.81-5.93,7.76-9.35
		c1.95-3.42,2.92-6.11,2.92-8.09c0-0.82-0.14-1.54-0.43-2.17c-3.08,0.58-5.51,1.16-7.29,1.73c-0.87,0.29-1.71,0.43-2.53,0.43
		c-0.82,0-1.79-0.32-2.92-0.97c-1.13-0.65-1.7-1.14-1.7-1.48c0-0.34,0.12-0.54,0.36-0.61c0.24-0.07,0.79-0.11,1.66-0.11
		c3.61,0,9.94-0.77,18.99-2.31c0.14-5.78,0.22-10.35,0.22-13.72c0-3.37-0.11-5.82-0.32-7.37c-0.22-1.54-0.6-2.68-1.16-3.43
		c-0.55-0.75-0.83-1.38-0.83-1.91c0-0.53,0.38-0.79,1.16-0.79c0.77,0,2.06,0.33,3.86,0.98c1.81,0.65,2.71,1.36,2.71,2.13
		c0,0.77-0.29,1.84-0.87,3.21c-0.58,1.37-1.04,8.15-1.37,20.33c3.27-0.48,6.15-1.06,8.63-1.73c2.48-0.67,4.56-1.01,6.25-1.01
		c1.68,0,3.09,0.32,4.22,0.97s1.7,1.22,1.7,1.7c0,0.67-1.13,1.04-3.39,1.08C368.82,153.17,363.29,153.55,358.28,154.13z
		 M349.04,144.89c0,0.82-0.14,1.54-0.43,2.17c-0.29,0.63-0.7,0.94-1.23,0.94c-1.01,0-2.3-1.11-3.86-3.32
		c-1.56-2.21-2.35-3.68-2.35-4.4c0-0.38,0.24-0.58,0.72-0.58c0.96,0,2.39,0.41,4.3,1.23C348.09,141.74,349.04,143.06,349.04,144.89z
		 M375.11,137.09c0,0.24-0.12,0.46-0.36,0.65c-0.24,0.19-1.1,0.71-2.56,1.55c-1.47,0.84-2.9,1.62-4.3,2.35s-2.92,1.48-4.58,2.27
		c-1.66,0.79-2.65,1.19-2.96,1.19c-0.31,0-0.47-0.1-0.47-0.29c0-0.19,0.26-0.53,0.79-1.01c2.98-2.6,5.09-4.57,6.32-5.92
		c1.23-1.35,1.89-2.47,1.99-3.36c0.1-0.89,0.46-1.34,1.08-1.34c0.38,0,1.32,0.51,2.82,1.52S375.11,136.51,375.11,137.09z"/>
	<path class="st0" d="M335.54,226.19c0,0.48-0.13,1.14-0.4,1.99c-0.27,0.84-0.71,1.26-1.34,1.26c-1.16,0-2.64-1.14-4.44-3.43
		c-1.81-2.29-2.71-3.67-2.71-4.15c0-0.48,0.36-0.72,1.08-0.72c1.92,0,3.71,0.54,5.34,1.62
		C334.72,223.85,335.54,224.99,335.54,226.19z M339.07,230.24c0.38,0,0.58,0.41,0.58,1.23c0,0.82-0.29,1.85-0.87,3.1
		c-1.35,2.89-2.6,6.09-3.75,9.6c-1.16,3.51-1.87,6.21-2.13,8.09c-0.27,1.88-0.82,2.82-1.66,2.82c-0.84,0-1.73-1.14-2.67-3.43
		c-0.94-2.29-1.41-3.79-1.41-4.51c0-0.48,0.26-0.78,0.79-0.9c0.53-0.12,1.06-0.51,1.59-1.16c0.53-0.65,1.81-2.67,3.83-6.07
		c2.02-3.39,3.59-6.1,4.69-8.12C338.4,230.46,338.74,230.24,339.07,230.24z M333.44,205.76c0.87,0,2.09,0.21,3.68,0.61
		c1.59,0.41,2.72,1.08,3.39,2.02c0.67,0.94,1.01,1.96,1.01,3.07c0,1.44-0.59,2.17-1.77,2.17s-2.72-1.07-4.62-3.21
		c-1.9-2.14-2.85-3.45-2.85-3.94C332.29,206,332.67,205.76,333.44,205.76z M361.02,219.48c6.35,5.63,11.34,9.54,14.95,11.73
		c3.61,2.19,8.23,3.91,13.86,5.16c0.96,0.19,1.44,0.47,1.44,0.83s-0.23,0.64-0.69,0.83c-0.46,0.19-1.96,0.46-4.51,0.79
		c-2.55,0.34-4.65,0.51-6.28,0.51c-1.64,0-2.97-0.3-4.01-0.9c-1.04-0.6-2.72-2.17-5.05-4.69s-5.93-6.7-10.79-12.53
		c-2.65,4.72-5.43,8.68-8.34,11.88c-2.91,3.2-5.79,5.72-8.63,7.55c-2.84,1.83-4.69,2.74-5.56,2.74c-0.39,0-0.58-0.16-0.58-0.47
		c0-0.31,0.34-0.73,1.01-1.26c4-3.08,6.97-5.73,8.92-7.94c1.95-2.21,3.8-4.75,5.56-7.62c1.76-2.86,2.89-5.14,3.39-6.82
		c0.51-1.68,0.71-2.7,0.61-3.03c-0.1-0.34-0.14-0.62-0.14-0.87c0-0.87,0.41-1.3,1.23-1.3c0.82,0,1.88,0.3,3.18,0.9
		c1.3,0.6,1.95,1.24,1.95,1.91c0,0.29-0.11,0.57-0.33,0.83C362,217.98,361.6,218.57,361.02,219.48z M357.05,207.06
		c0,0.43-0.26,0.84-0.79,1.23c-0.53,0.39-1.54,1.64-3.03,3.75c-1.83,2.41-3.89,4.5-6.17,6.28c-2.29,1.78-3.84,2.67-4.66,2.67
		c-0.29,0-0.43-0.12-0.43-0.36c0-0.24,0.24-0.6,0.72-1.08c1.97-2.02,3.85-4.44,5.63-7.26c1.78-2.82,2.67-4.93,2.67-6.35
		c0-1.42,0.33-2.13,0.97-2.13c0.65,0,1.66,0.4,3.03,1.19S357.05,206.48,357.05,207.06z M352.94,254.65
		c-0.05,1.25-0.16,2.09-0.33,2.53c-0.17,0.43-0.46,0.65-0.87,0.65c-0.41,0-0.87-0.39-1.37-1.16c-0.51-0.77-0.87-2.08-1.08-3.94
		c-0.22-1.85-0.63-3.8-1.23-5.85c-0.6-2.05-1.25-3.44-1.95-4.19c-0.7-0.75-1.05-1.4-1.05-1.95c0-0.55,0.58-0.83,1.73-0.83l2.38,0.22
		c2.55,0,5.42-0.31,8.59-0.94c3.18-0.62,5.21-1.17,6.1-1.62c0.89-0.46,1.73-0.69,2.53-0.69c0.79,0,2.51,0.67,5.16,2.02
		c2.65,1.35,3.97,2.46,3.97,3.32c0,0.43-0.36,0.84-1.08,1.23c-0.72,0.39-1.7,1.41-2.92,3.07s-1.84,2.76-1.84,3.29
		c0,0.34,0.43,0.66,1.3,0.97s1.3,0.83,1.3,1.55c0,0.29-0.08,0.55-0.25,0.79c-0.17,0.24-0.41,0.41-0.72,0.51
		c-0.31,0.1-1.42,0.24-3.32,0.43c-1.9,0.19-3.98,0.35-6.25,0.47c-2.26,0.12-4.1,0.18-5.52,0.18
		C354.8,254.72,353.71,254.69,352.94,254.65z M352.79,252.12c4.62-0.39,7.76-0.75,9.42-1.08c1.66-0.34,2.7-0.69,3.11-1.05
		c0.41-0.36,0.79-1.47,1.16-3.32c0.36-1.85,0.54-3.18,0.54-3.97s-0.16-1.32-0.47-1.59c-0.31-0.26-0.84-0.4-1.59-0.4
		c-0.75,0-2.74,0.24-5.99,0.72c-3.25,0.48-5.77,0.79-7.55,0.94C351.95,245.31,352.41,248.56,352.79,252.12z M369.11,204.6
		c2.74,0,4.85,0.6,6.32,1.81c1.47,1.2,2.2,2.58,2.2,4.12c0,1.11-0.51,1.66-1.52,1.66s-2.49-0.54-4.44-1.62
		c-1.95-1.08-3.6-2.03-4.95-2.85c-1.35-0.82-2.02-1.47-2.02-1.95C364.71,204.99,366.17,204.6,369.11,204.6z"/>
	<path class="st0" d="M356.69,280.42c0.82,1.54,1.23,3.73,1.23,6.57c0,4.91-1.08,10.5-3.25,16.75c-2.17,6.31-4.84,11.26-8.01,14.88
		c-3.18,3.61-6.16,5.42-8.95,5.42c-2.79,0-5.22-1.68-7.29-5.05c-2.07-3.37-3.11-7.08-3.11-11.12c0-4.91,1.37-9.8,4.12-14.66
		c1.4-2.46,3-4.62,4.8-6.5c1.81-1.88,3.86-3.49,6.17-4.84c4.57-2.7,9.46-4.04,14.66-4.04c5.29,0,9.99,1.04,14.08,3.1
		c4.14,2.02,7.46,5.01,9.96,8.95c2.5,3.95,3.75,8.23,3.75,12.85c0,4.53-1.57,8.79-4.69,12.78c-3.13,4-7.22,6.88-12.28,8.67
		c-5.1,1.83-9.77,2.74-14.01,2.74c-0.58,0-0.87-0.27-0.87-0.79c0-0.53,0.46-0.87,1.37-1.01c8.47-1.06,15.04-3.85,19.71-8.38
		c4.62-4.52,6.93-9.6,6.93-15.24c0-4-1.11-7.68-3.32-11.05c-2.21-3.42-5.21-5.94-8.99-7.58
		C364.93,281.24,360.93,280.42,356.69,280.42z M355.39,280.42c-7.56,0.29-13.55,3.08-17.98,8.38c-4.38,5.25-6.57,11.48-6.57,18.7
		c0,2.02,0.14,3.89,0.43,5.6c0.29,1.71,0.72,3.17,1.3,4.37c0.58,1.2,1.29,2.14,2.13,2.82c0.84,0.67,1.82,1.01,2.92,1.01
		c2.79,0,5.51-2.12,8.16-6.35c2.79-4.33,5.08-9.68,6.86-16.03C354.48,292.41,355.39,286.25,355.39,280.42z"/>
	<path class="st0" d="M346.66,366.8c-0.39,0.34-0.81,0.82-1.26,1.44c-0.46,0.63-1.1,1.49-1.91,2.6c-0.67,0.92-1.31,1.76-1.91,2.53
		c-0.6,0.77-1.17,1.52-1.7,2.24c0.43,0.48,0.79,0.93,1.08,1.34c0.29,0.41,0.52,0.87,0.69,1.37c0.17,0.5,0.29,1.08,0.36,1.73
		c0.07,0.65,0.11,1.41,0.11,2.27c0,0.77,0,1.65,0,2.64c0,0.99,0.01,2.01,0.04,3.07c0.02,1.06,0.04,2.11,0.04,3.14
		c0,1.04,0,1.99,0,2.85c0.05,0.67,0.05,1.41,0,2.2c-0.05,0.79-0.13,1.58-0.25,2.35c-0.12,0.77-0.24,1.44-0.36,2.02
		c-0.12,0.58-0.25,0.96-0.4,1.16c-0.39,0.77-0.76,1.13-1.12,1.08c-0.36-0.05-0.73-0.41-1.12-1.08c-0.58-1.11-0.99-2.37-1.23-3.79
		c-0.24-1.42-0.1-2.64,0.43-3.65c0.14-0.29,0.26-0.72,0.36-1.3c0.1-0.58,0.18-1.25,0.25-2.02c0.07-0.77,0.12-1.58,0.14-2.42
		c0.02-0.84,0.04-1.67,0.04-2.49c0-1.2,0-2.25,0-3.14c0-0.89-0.03-1.66-0.07-2.31c-0.05-0.65-0.1-1.23-0.14-1.73
		c-0.05-0.5-0.14-1-0.29-1.48c-1.3,1.49-2.49,2.74-3.57,3.75c-1.08,1.01-2.12,1.88-3.1,2.6c-0.99,0.72-1.97,1.34-2.96,1.84
		c-0.99,0.5-2.01,1-3.07,1.48c-1.01,0.39-1.59,0.45-1.73,0.18c-0.14-0.26,0.24-0.73,1.16-1.41c2.07-1.54,4.26-3.49,6.57-5.85
		c2.31-2.36,4.38-4.88,6.21-7.58c1.01-1.49,1.79-2.7,2.35-3.61c0.55-0.91,0.97-1.67,1.26-2.27c0.29-0.6,0.48-1.11,0.58-1.52
		c0.1-0.41,0.17-0.88,0.22-1.41c0.14-1.68,0.87-2.02,2.17-1.01c1.64,1.2,2.53,2.11,2.67,2.71
		C347.3,365.92,347.14,366.41,346.66,366.8z M378.79,357.26c-0.53,0.05-1.1,0.16-1.7,0.32c-0.6,0.17-1.2,0.36-1.81,0.58
		s-1.16,0.45-1.66,0.69c-0.51,0.24-0.93,0.46-1.26,0.65c-1.11,0.82-1.77,1.14-1.99,0.97c-0.22-0.17-0.06-0.71,0.47-1.62
		c0.62-1.06,1.06-1.92,1.3-2.6c0.24-0.67,0.3-1.18,0.18-1.52c-0.12-0.34-0.4-0.55-0.83-0.65c-0.43-0.1-0.99-0.12-1.66-0.07
		c-0.87,0.05-2.12,0.17-3.75,0.36c-1.64,0.19-3.39,0.43-5.27,0.72c-1.88,0.29-3.74,0.58-5.6,0.87c-1.85,0.29-3.43,0.55-4.73,0.79
		c-1.97,0.29-3.65,0.53-5.02,0.72c-1.37,0.19-2.55,0.35-3.54,0.47c-0.99,0.12-1.83,0.19-2.53,0.22c-0.7,0.02-1.36,0.01-1.99-0.04
		c-0.19,1.25-0.57,2.6-1.12,4.04c-0.55,1.44-1.17,2.48-1.84,3.1c-1.2,1.11-2.07,1.6-2.6,1.48c-0.53-0.12-0.82-0.83-0.87-2.13
		c-0.05-1.16,0.05-2.17,0.29-3.03c0.24-0.87,0.75-1.78,1.52-2.74c0.38-0.53,0.75-1.2,1.08-2.02c0.34-0.82,0.58-1.61,0.72-2.38
		c0.34-1.11,0.78-1.59,1.34-1.44c0.55,0.14,1.07,1.35,1.55,3.61c1.97-0.19,4.55-0.54,7.73-1.05c3.18-0.5,7.15-1.17,11.91-1.99
		c2.46-0.38,4.51-0.72,6.17-1.01c1.66-0.29,3.06-0.54,4.19-0.76c1.13-0.22,2.02-0.42,2.67-0.61c0.65-0.19,1.19-0.38,1.62-0.58
		c0.48-0.19,0.9-0.32,1.26-0.4c0.36-0.07,0.76-0.05,1.19,0.07c0.43,0.12,0.95,0.35,1.55,0.69c0.6,0.34,1.38,0.82,2.35,1.44
		c2.31,1.54,3.49,2.68,3.54,3.43C381.72,356.6,380.76,357.07,378.79,357.26z M380.16,364.49c0.48,0.24,0.78,0.53,0.9,0.87
		c0.12,0.34,0.06,0.65-0.18,0.94c-0.24,0.29-0.65,0.53-1.23,0.72c-0.58,0.19-1.32,0.24-2.24,0.14c-0.92-0.05-1.99-0.06-3.21-0.04
		s-2.55,0.1-3.97,0.22c-1.42,0.12-2.88,0.26-4.37,0.43c-1.49,0.17-2.96,0.35-4.4,0.54c1.35,0.77,2.19,1.41,2.53,1.91
		c0.34,0.51,0.31,1-0.07,1.48c-0.53,0.77-1.12,1.67-1.77,2.71c-0.65,1.04-1.24,2.32-1.77,3.86c1.92-0.34,3.83-0.72,5.7-1.16
		c1.88-0.43,3.37-0.91,4.48-1.44c0.43-0.14,0.9-0.19,1.41-0.14c0.51,0.05,1.31,0.39,2.42,1.01c1.78,0.96,2.8,1.67,3.07,2.13
		c0.26,0.46,0.18,0.98-0.25,1.55c-0.19,0.24-0.37,0.59-0.54,1.05c-0.17,0.46-0.3,1.16-0.4,2.09c-0.1,0.94-0.18,2.18-0.25,3.72
		c-0.07,1.54-0.13,3.49-0.18,5.85c-0.05,1.93-0.26,3.62-0.65,5.09c-0.39,1.47-0.82,2.61-1.3,3.43c-0.34,0.58-0.63,0.99-0.87,1.23
		c-0.24,0.24-0.47,0.28-0.69,0.11c-0.22-0.17-0.43-0.55-0.65-1.16c-0.22-0.6-0.49-1.48-0.83-2.64c-0.19-0.67-0.36-1.19-0.51-1.55
		c-0.14-0.36-0.32-0.61-0.54-0.76s-0.47-0.22-0.76-0.22c-0.29,0-0.65,0.02-1.08,0.07c-1.4,0.19-3.1,0.35-5.13,0.47
		c-2.02,0.12-4.09,0.2-6.21,0.25c-0.24,1.97-0.55,3.04-0.94,3.21c-0.39,0.17-0.92-0.37-1.59-1.62c-0.29-0.58-0.46-1.5-0.51-2.78
		c-0.05-1.27,0-2.75,0.14-4.44c0.05-0.87,0.05-1.82,0-2.85c-0.05-1.03-0.16-2.07-0.33-3.1c-0.17-1.04-0.41-2-0.72-2.89
		c-0.31-0.89-0.69-1.62-1.12-2.2c-0.53-0.77-0.63-1.37-0.29-1.81c0.34-0.43,1.42-0.31,3.25,0.36c1.11-0.14,2.21-0.29,3.32-0.43
		c0.72-2.55,1.19-4.56,1.41-6.03c0.22-1.47,0.13-2.8-0.25-4.01c-2.41,0.39-4.33,0.79-5.78,1.23c-0.63,0.14-1.28,0.21-1.95,0.18
		c-0.67-0.02-1.28-0.13-1.81-0.32c-1.06-0.43-1.53-0.79-1.41-1.08c0.12-0.29,0.66-0.5,1.62-0.65c0.58-0.1,1.43-0.23,2.56-0.4
		c1.13-0.17,2.38-0.37,3.75-0.61c1.37-0.24,2.79-0.49,4.26-0.76c1.47-0.26,2.83-0.52,4.08-0.76c1.25-0.24,2.35-0.46,3.29-0.65
		c0.94-0.19,1.55-0.34,1.84-0.43c2.31-0.72,4.26-1.09,5.85-1.12C376.91,363.27,378.52,363.67,380.16,364.49z M360.16,349.68
		c-0.34,0.87-0.84,1.37-1.52,1.52c-0.67,0.14-1.52-0.24-2.53-1.16c-0.82-0.67-1.66-1.48-2.53-2.42c-0.87-0.94-1.59-1.82-2.17-2.64
		c-0.58-0.96-0.78-1.58-0.61-1.84c0.17-0.26,0.81-0.37,1.91-0.32c2.84,0.19,4.95,0.95,6.32,2.27
		C360.41,346.42,360.78,347.95,360.16,349.68z M367.67,379.07c-1.69,0.19-3.57,0.43-5.67,0.72c-2.09,0.29-4.06,0.6-5.88,0.94
		c0.14,0.63,0.26,1.48,0.36,2.56c0.1,1.08,0.19,2.3,0.29,3.65c2.36-0.53,4.33-0.96,5.92-1.3c1.59-0.34,2.92-0.58,4.01-0.72
		c1.08-0.14,2-0.19,2.74-0.14c0.75,0.05,1.48,0.14,2.2,0.29c0-0.48-0.01-0.91-0.04-1.3c-0.02-0.38-0.04-0.77-0.04-1.16
		c-0.1-1.68-0.42-2.74-0.97-3.18C370.04,379,369.06,378.88,367.67,379.07z M371.57,393.37c0.05-1.01,0.08-2.14,0.11-3.39
		c0.02-1.25,0.01-2.48-0.04-3.68c-0.87,0.24-1.99,0.48-3.36,0.72c-1.37,0.24-2.79,0.46-4.26,0.65c-1.47,0.19-2.87,0.35-4.19,0.47
		c-1.32,0.12-2.32,0.13-3,0.04c0.1,2.55,0.1,4.96,0,7.22c2.74-0.43,4.92-0.77,6.54-1.01c1.61-0.24,2.85-0.4,3.72-0.47
		s1.48-0.07,1.84,0c0.36,0.07,0.69,0.18,0.97,0.33c0.62,0.34,1.05,0.45,1.26,0.32C371.39,394.44,371.52,394.04,371.57,393.37z"/>
</g>
<g>
	<path class="st0" d="M53.64,773.43c1.65-1.43,2.85-3.15,3.59-5.15c0.74-2,1.11-4.52,1.11-7.56v-17.34c0-1.17,0.01-2.11,0.03-2.8
		c0.02-0.69-0.08-1.24-0.29-1.63c-0.22-0.39-0.61-0.68-1.17-0.88c-0.56-0.2-1.43-0.36-2.61-0.49v-1.24
		c3.26-0.91,5.56-2.43,6.91-4.56h0.98v28.56c0,2.61-0.68,5.16-2.05,7.66c-1.37,2.5-3.36,4.55-5.97,6.16L53.64,773.43z M59.31,718.54
		c1.74,0,2.61,0.91,2.61,2.74c0,0.87-0.27,1.55-0.81,2.05c-0.54,0.5-1.23,0.75-2.05,0.75c-0.87,0.09-1.52-0.18-1.96-0.82
		c-0.44-0.63-0.65-1.31-0.65-2.05c0-0.74,0.25-1.39,0.75-1.96C57.69,718.69,58.4,718.45,59.31,718.54z"/>
	<path class="st0" d="M90.87,758.37c-0.7-0.09-1.63-0.15-2.8-0.2c-1.17-0.04-2.63-0.07-4.37-0.07c-1.74,0-3.19,0.02-4.37,0.07
		c-1.17,0.04-2.11,0.11-2.8,0.2v-1.04l3.65-0.72c1.35-0.26,2.02-1.04,2.02-2.35v-13.1c0-1.04-0.26-1.8-0.78-2.28
		c-0.52-0.48-1.56-0.89-3.13-1.24v-0.91c3.09-0.78,5.35-2.35,6.78-4.69h1.04v22.43c0,0.65,0.1,1.13,0.29,1.43
		c0.2,0.3,0.58,0.52,1.14,0.65l3.32,0.78V758.37z M83.7,718.6c0.74,0,1.41,0.28,2.02,0.85c0.61,0.57,0.91,1.22,0.91,1.96
		c0,0.7-0.32,1.31-0.95,1.86c-0.63,0.54-1.34,0.82-2.12,0.82c-0.74,0-1.37-0.26-1.89-0.78c-0.52-0.52-0.78-1.15-0.78-1.89
		s0.28-1.39,0.85-1.96C82.3,718.89,82.96,718.6,83.7,718.6z"/>
	<path class="st0" d="M128.88,754.98c-1.13,1.43-2.57,2.49-4.3,3.16c-1.74,0.67-3.43,1.01-5.09,1.01c-2.04,0-3.88-0.36-5.51-1.08
		s-3.02-1.68-4.17-2.9c-1.15-1.22-2.03-2.62-2.64-4.21c-0.61-1.59-0.91-3.27-0.91-5.05c0-2.04,0.3-3.91,0.91-5.61
		c0.61-1.69,1.51-3.15,2.71-4.37c1.19-1.22,2.67-2.16,4.43-2.84c1.76-0.67,3.79-1.01,6.1-1.01c2.39,0,4.34,0.36,5.83,1.08
		s2.25,1.64,2.25,2.77c0,0.61-0.2,1.14-0.59,1.6s-0.83,0.71-1.3,0.75c-0.61,0.04-1.15-0.17-1.63-0.65c-0.48-0.48-1.01-1.02-1.6-1.63
		c-0.59-0.61-1.28-1.17-2.09-1.7c-0.8-0.52-1.84-0.78-3.1-0.78c-1.35,0-2.5,0.34-3.46,1.01c-0.96,0.67-1.75,1.56-2.38,2.67
		c-0.63,1.11-1.09,2.36-1.37,3.75c-0.28,1.39-0.42,2.78-0.42,4.17c0,1.56,0.25,3.04,0.75,4.43c0.5,1.39,1.21,2.61,2.12,3.65
		c0.91,1.04,2.01,1.88,3.29,2.51c1.28,0.63,2.71,0.95,4.27,0.95c1.74-0.04,3.11-0.35,4.11-0.91c1-0.56,1.98-1.37,2.93-2.41
		L128.88,754.98z"/>
	<path class="st0" d="M155.87,759.15c-1.91,0-3.69-0.34-5.35-1.01c-1.65-0.67-3.09-1.61-4.3-2.8c-1.22-1.2-2.18-2.62-2.9-4.27
		c-0.72-1.65-1.08-3.46-1.08-5.41c0-2,0.36-3.82,1.08-5.48c0.72-1.65,1.71-3.07,2.97-4.27c1.26-1.2,2.75-2.13,4.47-2.8
		c1.72-0.67,3.6-1.01,5.64-1.01c2.09,0,3.98,0.36,5.67,1.08s3.16,1.7,4.4,2.93c1.24,1.24,2.19,2.7,2.87,4.37
		c0.67,1.67,1.01,3.45,1.01,5.31c0,1.87-0.36,3.62-1.08,5.25c-0.72,1.63-1.72,3.04-3,4.24c-1.28,1.2-2.81,2.14-4.6,2.84
		C159.89,758.81,157.95,759.15,155.87,759.15z M146.94,746.18c0,3.69,0.85,6.57,2.54,8.64s3.91,3.1,6.65,3.1
		c1.35,0,2.61-0.29,3.78-0.88c1.17-0.59,2.18-1.41,3.03-2.48c0.85-1.06,1.51-2.35,1.99-3.85c0.48-1.5,0.72-3.16,0.72-4.99
		c0-1.83-0.22-3.5-0.65-5.02c-0.44-1.52-1.07-2.83-1.89-3.91c-0.83-1.09-1.83-1.93-3-2.54c-1.17-0.61-2.48-0.91-3.91-0.91
		c-2.87,0-5.13,1.09-6.78,3.26C147.76,738.77,146.94,741.96,146.94,746.18z"/>
	<path class="st0" d="M215.52,758.31c-4.52-0.26-9.04-0.26-13.56,0v-1.04l3.59-0.52c0.96-0.13,1.43-0.98,1.43-2.54v-11.02
		c0-2.43-0.41-4.39-1.24-5.87c-0.83-1.48-2.43-2.22-4.82-2.22c-2.78,0-5.5,1.33-8.15,3.98v15.84c0,0.7,0.52,1.17,1.56,1.43
		l3.85,0.91v1.04c-0.61-0.04-1.33-0.09-2.15-0.13c-0.83-0.04-1.74-0.07-2.74-0.07h-2.15c-3.09,0-5.43,0.07-7.04,0.2v-1.04l3.46-0.65
		c0.87-0.13,1.3-0.78,1.3-1.96v-12.91c0-1.35-0.27-2.26-0.81-2.74c-0.54-0.48-1.51-0.83-2.9-1.04v-1.17
		c2.78-0.65,4.98-2.61,6.58-5.87h1.04v5.87c1.65-1.43,3.48-2.58,5.48-3.42c2-0.85,3.76-1.27,5.28-1.27c5,0,7.5,2.98,7.5,8.93V754
		c0,0.83,0.11,1.46,0.33,1.89c0.22,0.44,0.65,0.72,1.3,0.85l2.87,0.52V758.31z"/>
</g>
</svg>
