<?xml version="1.0" encoding="utf-8"?>
<!-- Generator: Adobe Illustrator 25.2.1, SVG Export Plug-In . SVG Version: 6.00 Build 0)  -->
<svg version="1.1" id="レイヤー_1" xmlns="http://www.w3.org/2000/svg" xmlns:xlink="http://www.w3.org/1999/xlink" x="0px"
	 y="0px" viewBox="0 0 150 900" style="enable-background:new 0 0 150 900;" xml:space="preserve">
<style type="text/css">
	.st0{fill:#231815;}
</style>
<g>
	<g>
		<path class="st0" d="M56.9,198.1c0,0.5,0,1,0,1.7c0,0.9-0.3,1.7-0.8,2.4c-0.5,0.7-1.1,1.1-1.6,1.1c-0.3,0-0.5-0.1-0.5-0.3
			c0-0.4,0.4-0.8,0.7-0.8c0.1,0,0.2,0,0.4,0.1c0.2,0.1,0.2,0.1,0.3,0.1c0.1,0,0.2-0.1,0.3-0.4c0.1-0.2,0.1-0.7,0.1-2.3v-3.5
			c0-0.7,0-1-0.1-1.1c-0.1-0.2-0.2-0.3-0.4-0.3l-0.5,0c-0.1,0-0.1,0-0.1-0.2c0-0.2,0-0.2,0.2-0.2c0.5-0.1,1.3-0.3,1.9-0.6
			c0.1,0,0.2,0,0.2,0.1c0,0.9-0.1,1.7-0.1,2.4V198.1z M57,190.8c0,0.4-0.4,0.7-0.7,0.7c-0.4,0-0.8-0.3-0.8-0.7
			c0-0.4,0.4-0.8,0.8-0.8C56.7,190,57,190.4,57,190.8z"/>
		<path class="st0" d="M63.4,196.2c0-0.7,0-1-0.1-1.1c-0.1-0.2-0.2-0.3-0.4-0.3l-0.5,0c-0.1,0-0.1,0-0.1-0.2c0-0.1,0-0.1,0.2-0.2
			c0.5-0.1,1.3-0.4,1.8-0.6c0.1,0,0.2,0,0.2,0.1c0,1-0.1,1.7-0.1,2.4v1.7c0,1.1,0,1.3,0.1,1.4c0.1,0.1,0.2,0.2,0.8,0.2
			c0.1,0,0.1,0,0.1,0.2c0,0.2,0,0.2-0.1,0.2c-0.4,0-0.9,0-1.3,0c-0.4,0-1,0-1.4,0c-0.1,0-0.1,0-0.1-0.2c0-0.1,0-0.1,0.1-0.2
			c0.5-0.1,0.7-0.1,0.8-0.2c0.1-0.1,0.1-0.3,0.1-1.4V196.2z M64.6,190.8c0,0.4-0.4,0.8-0.8,0.8c-0.4,0-0.8-0.3-0.8-0.8
			c0-0.4,0.4-0.8,0.8-0.8C64.2,190.1,64.6,190.4,64.6,190.8z"/>
		<path class="st0" d="M73.4,194.8c-0.2-0.4-0.6-0.6-0.9-0.6c-1,0-1.7,1-1.7,2.8c0,1.6,1,2.6,2,2.6c0.9,0,1.4-0.3,1.9-0.9
			c0-0.1,0.1-0.1,0.1-0.1c0.1,0,0.2,0.1,0.2,0.2c0,0,0,0.1,0,0.1c-0.6,1-1.4,1.4-2.4,1.4c-1.6,0-2.9-1.3-2.9-3.2
			c0-2,1.3-3.3,2.9-3.3c0.6,0,1,0.1,1.6,0.3c0.4,0.2,0.5,0.3,0.5,0.6c0,0.6-0.2,0.8-0.5,0.8c-0.2,0-0.3-0.1-0.7-0.6L73.4,194.8z"/>
		<path class="st0" d="M84.7,197c0,1.9-1.3,3.3-3,3.3c-1.6,0-3-1.3-3-3.2c0-1.9,1.4-3.3,3-3.3S84.7,195,84.7,197z M79.9,197.1
			c0,2,0.7,2.8,1.8,2.8c1,0,1.8-0.9,1.8-2.8c0-2-0.8-2.8-1.8-2.8C80.6,194.2,79.9,195.2,79.9,197.1z"/>
		<path class="st0" d="M88.8,194.8c-0.1,0-0.1,0-0.1-0.2c0-0.1,0-0.1,0.2-0.2c0.4-0.1,1.2-0.3,1.8-0.6c0.1,0,0.2,0.1,0.2,0.1
			c0,0.4,0,0.7,0,1.1c0.5-0.8,1.3-1.3,2.1-1.3c1.1,0,2,0.7,2,1.9c0,0.5,0,1.2,0,1.5v0.9c0,1.1,0,1.3,0.1,1.4
			c0.1,0.1,0.2,0.2,0.7,0.2c0.1,0,0.1,0,0.1,0.2c0,0.1,0,0.2-0.1,0.2c-0.4,0-0.9,0-1.3,0c-0.4,0-1,0-1.4,0c-0.1,0-0.1,0-0.1-0.2
			c0-0.1,0-0.1,0.1-0.2c0.5,0,0.6-0.1,0.7-0.2c0.1-0.1,0.1-0.3,0.1-1.4V196c0-0.4,0-0.6-0.2-0.8c-0.2-0.5-0.6-0.7-1.2-0.7
			c-0.5,0-1,0.2-1.4,0.8c-0.2,0.3-0.3,0.5-0.3,1.1v1.8c0,1.1,0,1.3,0.1,1.4c0.1,0.2,0.2,0.2,0.8,0.2c0.1,0,0.1,0,0.1,0.2
			c0,0.1,0,0.2-0.1,0.2c-0.4,0-0.9,0-1.3,0c-0.5,0-1,0-1.4,0c-0.1,0-0.1,0-0.1-0.2c0-0.1,0-0.1,0.1-0.2c0.5,0,0.6-0.1,0.7-0.2
			c0.1-0.1,0.1-0.3,0.1-1.4v-1.9c0-0.7,0-0.9-0.1-1.1c-0.1-0.2-0.2-0.3-0.4-0.3L88.8,194.8z"/>
	</g>
	<g>
		<path class="st0" d="M57.6,803.6c-0.2,0-0.3-0.1-0.3-0.5V802h-6.7v0.7c0,0.3-0.4,0.7-0.7,0.7c-0.2,0-0.4-0.1-0.4-0.5
			c0-0.2,0-0.7,0-1.1c0-1.4,0.1-4.2,0.1-5.6v-4.7c0-0.6,0-1.3-0.2-1.8c0.6,0.3,1,0.5,1.2,0.6c0.1,0,0.1,0.1,0.1,0.1h6l0.4-0.4
			c0.1-0.1,0.2-0.1,0.2-0.1s0.1,0,0.2,0.1c0.2,0.2,0.6,0.4,0.8,0.6c0.1,0.1,0.2,0.2,0.2,0.2c0,0.1-0.3,0.4-0.5,0.6
			c0,1.8,0,6.1,0,6.8c0,1.9,0.1,4.1,0.1,4.7C58.4,803.2,57.9,803.6,57.6,803.6z M57.3,795.9V791h-6.7v4.9H57.3z M57.3,801.6v-5.2
			h-6.7v5.2H57.3z"/>
		<path class="st0" d="M46.7,822.5l0-0.2c2.8-1,4.5-2.8,5-5.3c0.1-0.5,0.2-1.4,0.2-1.9c0-0.3,0-0.6-0.1-0.8h-2.9
			c-0.3,0-0.8,0-1.1,0.2c-0.3-0.1-0.7-0.3-0.8-0.8c0.6,0.1,1,0.1,1.5,0.1h5.1v-3.8c0-0.4,0-0.7,0-1.2c0-0.4-0.1-0.9-0.2-1.2
			c0.5,0.1,0.9,0.3,1.3,0.4c0.2,0.1,0.3,0.1,0.3,0.2c0,0.2-0.2,0.3-0.4,0.4c0,0.5,0,0.9,0,1.5v3.8h4.7l0.6-0.6c0,0,0.1-0.1,0.2-0.1
			c0,0,0.1,0,0.3,0.1c0.4,0.2,0.8,0.5,1.1,0.8c0.1,0,0.1,0.1,0.1,0.1c0,0.1-0.1,0.1-0.1,0.1h-5.4l0,1.6c0,0.8,0,3.9,0,4.2
			c0,0.5,0.4,0.8,0.8,0.8c0.4,0,1.1,0.1,1.5,0.1c1.2,0,1.8-0.1,2.1-1c0.2-0.8,0.4-1.7,0.5-2.5h0.2c0.1,0.6,0.1,1.4,0.1,2
			c0,0.5,0.2,0.9,0.5,1.2c0,0.4-0.3,0.7-0.6,0.8c-0.6,0.3-1.6,0.4-2.7,0.4c-0.8,0-1.6,0-2.2-0.1c-0.5-0.1-1.1-0.6-1.1-1.4
			c0-0.3,0-1.1,0-2.1c0-1,0-2,0-2.3l0-1.6h-3c0.5,0.2,0.8,0.3,1.2,0.5c0.2,0.1,0.3,0.1,0.3,0.3c0,0.2-0.3,0.4-0.5,0.5
			c-0.1,0.5-0.2,1.2-0.3,1.6C52.1,819.5,50.2,821.8,46.7,822.5z M49.3,809.4l0.1-0.1c1.4,0.7,2.4,1.7,2.4,2.6c0,0.5-0.3,0.8-0.5,0.8
			c-0.3,0-0.5-0.3-0.6-0.7C50.6,811.3,50.1,810.2,49.3,809.4z M57.6,809.3c0-0.2,0-0.3,0-0.4c0.6,0.3,1.1,0.6,1.5,0.8
			c0.1,0.1,0.1,0.1,0.1,0.2c0,0.2-0.4,0.3-0.7,0.3c-0.6,1-1.7,2.2-2.8,3.1l-0.1-0.1c0.8-1,1.6-2.4,2-3.4
			C57.6,809.6,57.6,809.5,57.6,809.3z"/>
		<path class="st0" d="M49.4,840.7c-0.2,0-0.4-0.3-0.4-0.6c0-0.2,0-1.1,0.1-2c0-0.8,0.1-3.6,0.1-6.3c-0.7,2-1.7,3.6-3.1,4.9
			l-0.1-0.1c1.4-1.8,2.5-4.1,3-6.8h-0.6c-0.3,0-0.8,0-1,0.2c-0.4-0.1-0.8-0.3-0.9-0.8c0.6,0.1,1,0.1,1.5,0.1h1.3c0-0.8,0-1.5,0-2.1
			c0-0.4-0.1-1-0.3-1.4c0.7,0.2,0.8,0.2,1.3,0.4c0.2,0.1,0.2,0.1,0.2,0.2c0,0.2-0.2,0.3-0.5,0.4c0,0.7,0,1.5-0.1,2.5h0.9l0.4-0.4
			c0,0,0.1-0.1,0.1-0.1c0,0,0.1,0,0.2,0.1c0.3,0.2,0.5,0.4,0.8,0.6c0.1,0,0.1,0.1,0.1,0.1c0,0,0,0.1-0.1,0.1H50v1.8
			c1.1,0.6,2,1.5,2,2.1c0,0.3-0.2,0.5-0.4,0.5c-0.3,0-0.4-0.2-0.5-0.4c-0.2-0.6-0.6-1.3-1.1-1.9v3.4c0,0.8,0,2.2,0,2.7
			c0,0.5,0,1.5,0,1.7C50.1,840.2,49.7,840.7,49.4,840.7z M59.4,839.9c-0.2,0-0.4-0.1-0.6-0.7c-0.1-0.4-0.4-0.9-0.6-1.5
			c-1.7,0.6-3.9,1-5.8,1.3c-0.1,0.2-0.2,0.5-0.4,0.5c-0.1,0-0.2-0.1-0.3-0.4c-0.1-0.2-0.2-0.6-0.4-1.1c0.4,0.1,0.7,0.1,1,0.1h0.4
			c1-1.5,1.9-3.9,2.1-5.2c0-0.2,0-0.3,0-0.5c0-0.2,0-0.4,0-0.6c0.6,0.3,0.9,0.4,1.3,0.6c0.2,0.1,0.3,0.2,0.3,0.3
			c0,0.1-0.2,0.2-0.6,0.4c-0.7,1.8-1.5,3.5-2.8,5c1.6-0.1,3.5-0.3,5.1-0.5c-0.4-0.7-0.9-1.4-1.4-2l0.1-0.1c1.7,1.2,3,2.7,3,3.7
			C59.9,839.6,59.6,839.9,59.4,839.9z M51.8,832.4c1.1-1.3,1.7-2.6,2.1-3.8c0.2-0.5,0.2-1,0.2-1.4c0.5,0.3,0.9,0.5,1.2,0.7
			c0.1,0.1,0.1,0.1,0.1,0.2c0,0.1-0.3,0.3-0.5,0.3c-0.7,1.7-1.4,2.8-3,4.2L51.8,832.4z M55.9,827.2l0-0.3c0.3,0,0.7,0.1,0.9,0.3
			c0.3,0.2,0.5,0.7,0.7,1.3c0.7,1.9,1.9,3.6,3.9,4.2c-0.2,0.2-0.4,0.4-0.9,0.4c-0.2,0-0.3,0.1-0.4,0.2c-0.1,0.1-0.2,0.2-0.3,0.2
			c-0.1,0-0.2,0-0.3-0.1c-0.9-0.9-1.9-2.5-2.5-4.8c-0.2-0.7-0.4-0.9-0.6-1C56.3,827.4,56.1,827.3,55.9,827.2z"/>
		<path class="st0" d="M54.4,858.5c-0.2-0.3-0.5-0.5-0.9-0.7c-0.4-0.2-0.8-0.5-1.1-0.9l0.1-0.1c0.5,0.2,1.3,0.4,1.8,0.4
			c0.4,0,0.5-0.2,0.5-0.6v-4h-2.4v0.2c0,0.2-0.4,0.5-0.6,0.5c-0.2,0-0.3-0.1-0.3-0.3c0-0.1,0-0.3,0-0.5c0-0.4,0-1.4,0-2.7
			c0-0.9,0-1.7-0.1-2.6c0.4,0.2,0.7,0.3,0.9,0.5c0.1,0.1,0.2,0.1,0.2,0.1H54c0.3-0.7,0.5-1.3,0.6-1.8c0-0.2,0-0.3,0-0.4h-5v2.4
			c0,3.9-0.3,7.3-2.7,9.8l-0.1-0.1c1.7-2.8,1.9-5.7,1.9-9.5c0-0.9,0-1.7,0-2.6c0-0.3-0.1-0.8-0.2-1.2c0.5,0.2,0.9,0.4,1.2,0.5
			c0.1,0.1,0.2,0.1,0.2,0.2h8.8l0.6-0.6c0,0,0.1-0.1,0.2-0.1c0,0,0.1,0,0.2,0.1c0.3,0.2,0.7,0.5,1,0.7c0.1,0,0.1,0.1,0.1,0.1
			c0,0-0.1,0.1-0.1,0.1h-5.6c0.2,0.1,0.5,0.2,0.7,0.3c0.1,0,0.1,0.1,0.1,0.1c0,0.2-0.3,0.2-0.5,0.3c-0.3,0.5-0.7,1.1-1.1,1.5h3.2
			l0.3-0.4c0.1-0.1,0.1-0.1,0.2-0.1c0,0,0.1,0,0.2,0.1c0.2,0.1,0.4,0.3,0.6,0.4c0.1,0,0.1,0.1,0.1,0.2c0,0.1-0.2,0.3-0.4,0.5
			c0,0.7,0,2.1,0,2.7c0,0.6,0,1.1,0,1.5c0,0.3-0.3,0.6-0.6,0.6c-0.2,0-0.3-0.2-0.3-0.4v-0.2h-2.2c0,1.6,0,3,0,4.5
			C55.6,857.7,55.2,858,54.4,858.5z M48.6,857.5c1.4-0.8,2.7-2,3.3-3.1c0.1-0.2,0.2-0.5,0.2-0.8c0.6,0.4,1,0.7,1.2,0.8
			c0.1,0.1,0.1,0.1,0.1,0.1c0,0.2-0.6,0.2-0.7,0.2c-0.9,1.2-2.3,2.3-4,2.8L48.6,857.5z M57.8,849.9v-1.7h-5.4v1.7H57.8z M57.8,852.1
			v-1.8h-5.4v1.8H57.8z M57,853.9c2,0.9,3.3,2,3.3,2.7c0,0.5-0.2,0.7-0.4,0.7c-0.3,0-0.4-0.2-0.6-0.5c-0.3-0.6-1.3-1.8-2.4-2.7
			L57,853.9z"/>
		<path class="st0" d="M53.9,864.5c0.1,0.1,0.3,0.2,0.3,0.4c0,3.3-1.2,5.3-3.8,6.9c-0.5,0.3-1,0.5-1.3,0.5c-0.1,0-0.2-0.1-0.3-0.3
			c0-0.1-0.1-0.2-0.2-0.3c-0.2-0.3-0.4-0.9-0.4-1.7c0-1.8,0.7-3.5,2.1-4.8c1.4-1.3,3.1-1.6,4.1-1.6c3.1,0,5.3,2.3,5.3,5.1
			c0,1.8-0.7,3.2-2.1,4c-1.2,0.7-2.9,0.9-3.9,1l0-0.2c1.3-0.3,2.4-0.8,3.3-1.5c1-0.8,1.6-2.2,1.6-3.4c0-2.5-1.5-4.5-4.5-4.5
			c-1.2,0-2.6,0.5-3.6,1.4c-1.1,1-1.6,2.5-1.6,3.6c0,0.7,0.1,1.8,0.5,1.8c0.2,0,0.9-0.4,1.3-0.6C52.8,869.1,53.6,866.8,53.9,864.5z"
			/>
		<path class="st0" d="M49.8,893.6c-0.2,0-0.3-0.1-0.3-0.4c0-0.2,0.1-1.3,0.1-2.1c0-0.9,0.1-2,0.1-2.9v-0.4c0-0.6,0-1.2-0.1-1.6
			c-0.9,1.3-1.9,2.5-3,3.4l-0.1-0.1c1.7-1.8,3.4-4.5,3.8-6.7c0-0.2,0.1-0.5,0.1-0.7c0.5,0.2,0.9,0.5,1.3,0.7c0.1,0,0.1,0.1,0.1,0.1
			c0,0.2-0.4,0.3-0.6,0.3c-0.3,0.8-0.7,1.5-1.2,2.3c0.3,0.1,0.6,0.2,0.7,0.3c0.1,0,0.1,0.1,0.1,0.2c0,0.1-0.2,0.3-0.4,0.5
			c0,0.4,0,0.9,0,1.4v0.4c0,0.9,0,1.7,0,2.5c0,0.9,0,1.8,0,2.2C50.4,893.2,50,893.6,49.8,893.6z M47.8,883.3c-0.3,0-0.5-0.2-0.5-0.5
			c0-0.4,0.2-0.6,0.4-0.8c0.7-0.5,1.1-1.1,1.1-2.1l0.2,0c0,0.2,0.1,0.5,0.1,0.7h4.3v-0.1c0-0.2,0-0.3,0-0.7c0-0.4-0.1-0.9-0.2-1.2
			c0.5,0.1,1,0.3,1.3,0.4c0.2,0.1,0.3,0.1,0.3,0.2c0,0.2-0.3,0.3-0.4,0.4c0,0.4,0,0.7,0,0.8v0.2h4.1l0.5-0.5
			c0.1-0.1,0.1-0.1,0.2-0.1c0,0,0.1,0,0.1,0.1c0.3,0.2,0.6,0.5,0.9,0.8c0.1,0.1,0.1,0.1,0.1,0.2c0,0.2-0.4,0.3-0.7,0.4
			c-0.4,0.5-1,1-1.8,1.4l-0.1-0.1c0.5-0.6,0.8-1.2,1-1.7h-9.6c0,0.7-0.2,1.4-0.6,1.8C48.3,883.1,48.1,883.3,47.8,883.3z M53.4,893.5
			c-0.2,0-0.3-0.1-0.3-0.3c0-0.1,0-0.5,0-0.9c0-1.4,0-2.7,0-3.9c0-0.7,0-2-0.1-2.8c0.4,0.2,0.7,0.3,1,0.5c0.1,0,0.1,0.1,0.2,0.2H55
			c0.2-0.6,0.4-1.1,0.5-1.6c0-0.1,0-0.4,0-0.4h-1.8c-0.3,0-0.8,0-1.1,0.2c-0.3-0.1-0.7-0.3-0.8-0.8c0.6,0.1,1,0.1,1.5,0.1h5.4
			l0.5-0.5c0,0,0.1-0.1,0.2-0.1c0.1,0,0.1,0,0.2,0.1c0.3,0.2,0.6,0.5,0.9,0.7c0.1,0.1,0.1,0.1,0.1,0.1c0,0,0,0.1-0.1,0.1h-4.6
			c0.2,0.1,0.5,0.2,0.7,0.4c0.1,0,0.2,0.1,0.2,0.2c0,0.1-0.4,0.2-0.6,0.3c-0.3,0.4-0.6,0.9-0.9,1.2H58l0.3-0.4
			c0.1-0.1,0.1-0.1,0.2-0.1c0.1,0,0.1,0,0.2,0.1c0.2,0.1,0.4,0.3,0.6,0.4c0.1,0,0.1,0.1,0.1,0.2c0,0.1-0.2,0.3-0.4,0.5
			c0,0.7,0,2.6,0,3.5c0,1,0,2,0,2.5c0,0.3-0.3,0.6-0.6,0.6c-0.2,0-0.3-0.2-0.3-0.4v-0.6H54v0.6C54,893.1,53.6,893.5,53.4,893.5z
			 M58.3,888.9v-2.4H54v2.4H58.3z M58.3,891.9v-2.6H54v2.6H58.3z"/>
	</g>
	<g>
		<path class="st0" d="M98.8,20.5c0,0,0.2-0.1,0.6-0.3c0.4-0.3,0.8-0.8,0.8-1.2c0-0.3-1.9-2.4-2.1-2.6c-0.4-0.4-0.6-0.4-0.8-0.4
			l-0.1,0c-0.1,0-0.5,0-0.9,0.5l-1.2,1.2H67.9l0.2-0.3c2.8-3.6,4.7-6.6,5.5-8.7l0-0.1l0.1,0c1.7-0.4,2.4-0.8,2.5-1c0,0,0-0.1,0-0.1
			c0-0.1-0.1-0.3-0.4-0.5c-1.4-0.9-2.5-1.5-3.5-2l-0.7-0.4h-1.2v0.2c0,0.8,0,1.5-0.1,2.1c-0.3,3.4-1.9,7.8-3.4,10.8l-0.1,0.1H55
			c0,0,0,0,0-0.1c-0.1-0.3-0.1-0.5-0.3-0.6c-1.5-0.7-2.2-1-2.9-1.2l-0.5-0.2c0,0-0.1,0-0.1,0c-0.1,0-0.1,0-0.1,0.1
			C51,15.7,51,15.8,51,15.8c0.2,1.1,0.3,2.2,0.4,3.5c0.1,3.1,0.1,8.5,0.1,12.4c0,4.5-0.1,12.6-0.2,15.9c-0.2,4.5-0.3,7.6-0.3,9.7
			c0,0.7,0.5,1.8,1.2,1.8c0.8,0,2.7-1.9,2.7-2.9c0-2.9,0-6.1,0-9.3l0-0.2c0-3.3,0-6.7,0-9.9c0-4.8,0-9.7,0.1-14.5c0-1.1,0-2,0.1-3.1
			l0-0.2h11v15c0,4.2-0.1,7.7-0.2,10.5l0,0.3l0,0.1c-0.1,2.9-0.3,7.2-0.3,8c0,0.8,0.5,1.6,1.3,1.6c1.1,0,2.8-1.9,2.8-3.1
			c0-0.8-0.1-4.4-0.1-6.9c-0.1-3-0.1-7.4-0.1-10.7V19.2h11.4v15.4c0,4.2-0.1,7.7-0.2,10.5l0,0.3l0,0.1c-0.1,2.9-0.3,7.2-0.3,8
			c0,0.8,0.5,1.6,1.3,1.6c1.1,0,2.8-1.9,2.8-3.1c0-0.8-0.1-4.3-0.1-6.9c-0.1-3-0.1-7.3-0.1-10.7V19.2h11.7v31.8
			c0,2.6-1.2,2.9-2.1,3.1l-0.2,0.1c-0.4,0.1-0.7,0.1-1.1,0.1c-0.8,0-1.6-0.2-2.8-0.4l-0.6-0.1l-0.8-0.2c0,0,0,0,0,0
			c-0.1,0-0.2,0-0.2,0.1c0,0.1,0,0.2,0,0.3c1.2,1.3,1.5,1.6,2.7,2.5l0.7,0.5c0.3,0.2,0.7,0.5,1.2,0.8c0.5,0.3,1.1,0.7,1.8,1.2
			c0,0,0.1,0,0.1,0c0,0,0.1,0,0.1,0c2.6-1.6,4.7-3.1,4.7-6.6c0-1.9-0.1-6.4-0.1-10.1c-0.1-5.1-0.1-15-0.1-20.9V20.5L98.8,20.5z"/>
		<path class="st0" d="M88.5,132.5l-0.2-0.1c-0.4-0.3-0.6-0.5-0.9-0.5c-0.3,0-0.5,0.2-0.7,0.4l-1.9,1.6H59.7c-2.2,0-4.3,0-6.7-0.5
			c0,0-0.1,0-0.1,0c0,0,0,0.1,0,0.1c0.9,2.3,2.7,3.2,3.8,3.5c0,0,0.1,0,0.1,0c1.2-1,3.6-1,4.7-1h24.2c-2.4,7.4-7.1,15.8-12.6,22.7
			c-0.3,0.4-0.7,1.1-0.7,1.4c0,0.8,0.5,1.2,1.3,1.2c2.5,0,3.7-1.2,4.5-2.2c4.1-5.4,8.1-12.9,11.3-21.1c0.8-0.5,2.3-1.5,2.3-2.3
			c0-0.3-0.3-0.6-0.5-0.8C90.4,134,89.5,133.3,88.5,132.5z"/>
		<path class="st0" d="M64.6,125.8c0,0,0.1,0,0.1,0c1.3-1,3.6-1,4.8-1h16.7c0.1,0,0.2,0,0.2,0c0.1,0,0.2-0.1,0.2-0.2
			c0-0.1-0.1-0.2-0.2-0.2c0,0,0,0-0.1-0.1c-0.5-0.5-1.1-0.9-1.7-1.4c-0.4-0.3-0.9-0.7-1.5-1.1c-0.4-0.3-0.5-0.4-0.7-0.4
			c-0.2,0-0.4,0.1-0.5,0.2l-2.2,1.8h-12c-2,0-3.9,0-6-0.4c0,0,0,0,0,0c-0.1,0-0.1,0-0.2,0.1c0,0.1-0.1,0.2,0,0.2
			C62.4,124.7,63.6,125.4,64.6,125.8C64.6,125.8,64.6,125.8,64.6,125.8z"/>
		<path class="st0" d="M48.2,5.5C48.2,5.5,48.2,5.5,48.2,5.5c0.1,0,0.2,0,0.2,0c1.3-1,3.6-1,4.8-1h51.4c0.1,0,0.2,0,0.2,0
			c0.1,0,0.2-0.1,0.2-0.2c0-0.1-0.1-0.2-0.2-0.2c0,0,0,0-0.1-0.1c-0.5-0.5-1.1-0.9-1.7-1.4c-0.4-0.3-0.9-0.7-1.5-1.1
			c-0.4-0.3-0.5-0.4-0.7-0.4c-0.2,0-0.4,0.1-0.5,0.2L98.1,3H51.4c-2,0-3.9,0-6-0.4c0,0,0,0,0,0c-0.1,0-0.1,0-0.2,0.1
			c0,0.1-0.1,0.2,0,0.2C46,4.4,47.3,5.1,48.2,5.5z"/>
		<path class="st0" d="M108.5,126.3c-13.1-3-21.5-11.9-29-20.7c-1.5-1.8-2.3-2.8-3.5-4.1c-0.5-0.6-0.7-0.7-1.1-1l-0.4-0.3l0.5-0.1
			c1.2-0.2,2.5-0.8,2.5-1.3c0-0.1,0-0.3-0.4-0.5c-1.8-0.8-4-1.6-5.9-2.3c0,0-0.1,0-0.1,0c0,0-0.1,0-0.1,0c-0.1,0-0.1,0.1-0.1,0.2
			c-0.2,1.9-1.1,4-2.5,6.6c-4.6,8.8-14.1,20.6-26.8,27.3c-0.1,0-0.1,0.1-0.1,0.1c0,0.1,0,0.1,0,0.2c0,0.1,0.1,0.1,0.2,0.1
			c0,0,0,0,0.1,0c12.8-4.6,24.1-14.9,32.5-29.8l0.1-0.2l0.2,0.2c0.4,0.4,0.7,0.7,1,1c0.7,1,1.1,1.6,2.3,3.5
			c7.6,11.3,13.6,18.2,20.3,23c0.9,0.6,2.4,1.5,2.9,1.5c0.5,0,0.7-0.2,1.1-0.7c0.4-0.5,0.9-0.9,2-0.9c2.3,0,3.9-0.5,4.6-1.5
			c0-0.1,0.1-0.1,0-0.2C108.6,126.4,108.6,126.3,108.5,126.3z"/>
	</g>
</g>
</svg>
