<?xml version="1.0" encoding="utf-8"?>
<!-- Generator: Adobe Illustrator 25.2.1, SVG Export Plug-In . SVG Version: 6.00 Build 0)  -->
<svg version="1.1" xmlns="http://www.w3.org/2000/svg" xmlns:xlink="http://www.w3.org/1999/xlink" x="0px" y="0px"
	 viewBox="0 0 255 400" style="enable-background:new 0 0 255 400;" xml:space="preserve">
<style type="text/css">
	.st0_black{fill:#000000s;}
</style>
<g>
	<path class="st0_black" d="M244.3,43.8c-0.5,0-0.7-0.3-0.7-1v-2.3h-14V42c0,0.5-0.8,1.5-1.4,1.5c-0.5,0-0.8-0.3-0.8-1
		c0-0.5,0-1.4,0.1-2.4c0.1-2.8,0.1-8.8,0.1-11.8v-9.8c0-1.3-0.1-2.7-0.3-3.7c1.2,0.6,2,1,2.6,1.3c0.1,0.1,0.3,0.2,0.3,0.3h12.7
		l0.8-0.9c0.2-0.2,0.3-0.3,0.5-0.3s0.3,0.1,0.5,0.2c0.5,0.3,1.2,0.9,1.7,1.2c0.3,0.2,0.4,0.3,0.4,0.4c0,0.3-0.6,0.8-1.1,1.2
		c0,3.8,0,12.8,0,14.4c0.1,4,0.2,8.6,0.2,9.8C245.8,43,244.9,43.8,244.3,43.8z M243.6,27.7V17.4h-14v10.4L243.6,27.7L243.6,27.7z
		 M243.6,39.7v-11h-14v11H243.6z"/>
	<path class="st0_black" d="M221.4,83.6l-0.1-0.4c6-2.1,9.4-5.9,10.5-11.1c0.2-1.1,0.4-2.9,0.4-4c0-0.7,0-1.3-0.2-1.7h-6.1
		c-0.6,0-1.7,0.1-2.3,0.5c-0.6-0.2-1.4-0.7-1.8-1.7c1.2,0.2,2.2,0.2,3.3,0.2h10.8v-7.9c0-0.9,0-1.5-0.1-2.6
		c-0.1-0.9-0.2-1.9-0.4-2.6c1.1,0.3,2,0.5,2.7,0.8c0.4,0.1,0.5,0.2,0.5,0.4c0,0.3-0.4,0.5-0.9,0.8c-0.1,1.1-0.1,2-0.1,3.1v8h9.9
		l1.2-1.2c0.1-0.1,0.2-0.2,0.3-0.2s0.3,0.1,0.5,0.3c0.8,0.5,1.6,1,2.4,1.6c0.1,0.1,0.2,0.2,0.2,0.3c0,0.1-0.2,0.2-0.3,0.2h-11.3v3.4
		c0,1.7,0,8.2,0,8.9c0,1.1,0.8,1.6,1.8,1.7c0.9,0.1,2.4,0.1,3.2,0.1c2.5,0,3.9-0.2,4.4-2.1c0.5-1.7,0.8-3.6,1-5.3h0.3
		c0.1,1.2,0.2,3,0.3,4.1c0,1.1,0.5,1.9,1.1,2.4c0,0.8-0.7,1.4-1.2,1.7c-1.2,0.7-3.3,0.9-5.8,0.9c-1.6,0-3.4,0-4.7-0.3
		c-1.1-0.3-2.3-1.3-2.3-3c0-0.7,0-2.4,0-4.4s0.1-4.1,0.1-4.9v-3.4h-6.4c1.1,0.4,1.7,0.7,2.5,1.1c0.4,0.2,0.6,0.3,0.6,0.6
		c0,0.3-0.7,0.8-1.1,1c-0.1,1-0.4,2.4-0.6,3.3C232.6,77.5,228.7,82.3,221.4,83.6z M226.7,56.2l0.2-0.3c3,1.4,5.1,3.5,5.1,5.5
		c0,1.1-0.7,1.6-1.1,1.6c-0.7,0-1.1-0.7-1.2-1.5C229.5,60.2,228.4,57.8,226.7,56.2z M244.2,56c0-0.3,0-0.7-0.1-0.9
		c1.2,0.6,2.3,1.2,3.3,1.7c0.2,0.1,0.3,0.2,0.3,0.4c0,0.3-0.8,0.6-1.5,0.7c-1.3,2.1-3.5,4.7-5.9,6.4L240,64c1.8-2.2,3.5-5.1,4.1-7.1
		C244.2,56.5,244.2,56.3,244.2,56z"/>
	<path class="st0_black" d="M227,122c-0.5,0-0.8-0.5-0.8-1.2c0-0.4,0.1-2.3,0.2-4.1c0.1-1.6,0.2-7.5,0.3-13.3c-1.4,4.1-3.6,7.5-6.6,10.3
		l-0.3-0.2c3-3.9,5.2-8.7,6.4-14.2h-1.3c-0.6,0-1.7,0-2.2,0.5c-0.8-0.2-1.6-0.7-2-1.6c1.2,0.2,2.2,0.2,3.3,0.2h2.6
		c0-1.6-0.1-3.1-0.1-4.4c0-0.9-0.2-2.1-0.6-3c1.4,0.4,1.8,0.5,2.7,0.9c0.4,0.1,0.5,0.3,0.5,0.4c0,0.3-0.3,0.5-1,0.9
		c-0.1,1.5-0.1,3.1-0.1,5.2h2l0.8-0.9c0.1-0.1,0.2-0.2,0.3-0.2s0.2,0,0.4,0.2c0.6,0.4,1.1,0.8,1.7,1.3c0.1,0.1,0.2,0.2,0.2,0.3
		c0,0.1-0.1,0.2-0.3,0.2h-5v3.8c2.3,1.3,4.1,3.1,4.1,4.5c0,0.5-0.3,1.1-0.8,1.1s-0.9-0.4-1-0.9c-0.4-1.3-1.2-2.7-2.4-4v7.2
		c0,1.6,0,4.7,0.1,5.7c0,1,0.1,3.1,0.1,3.6C228.4,120.9,227.6,122,227,122z M248,120.3c-0.4,0-0.8-0.3-1.2-1.4
		c-0.3-0.9-0.8-2-1.3-3.1c-3.5,1.2-8.2,2.1-12.2,2.7c-0.1,0.4-0.5,1-0.8,1s-0.4-0.2-0.7-0.9c-0.2-0.5-0.5-1.3-0.9-2.4
		c0.8,0.2,1.4,0.2,2.1,0.2h0.9c2.1-3.3,3.9-8.2,4.4-10.9c0.1-0.4,0.1-0.7,0.1-1.1s0-0.8-0.1-1.2c1.3,0.5,2,0.9,2.7,1.2
		c0.5,0.3,0.7,0.4,0.7,0.7c0,0.3-0.4,0.5-1.2,0.8c-1.5,3.8-3.2,7.3-5.9,10.5c3.4-0.2,7.4-0.5,10.7-1.1c-0.8-1.5-1.8-3-2.9-4.2
		l0.3-0.3c3.6,2.5,6.4,5.7,6.4,7.8C249,119.6,248.5,120.3,248,120.3z M232.1,104.6c2.4-2.7,3.7-5.5,4.4-8c0.3-1.1,0.4-2,0.4-2.9
		c1.1,0.5,2,1,2.5,1.4c0.2,0.1,0.3,0.2,0.3,0.4c0,0.3-0.6,0.5-1.1,0.7c-1.5,3.6-2.8,6-6.3,8.8L232.1,104.6z M240.6,93.6l0.1-0.5
		c0.6,0,1.4,0.2,2,0.5c0.7,0.4,1,1.4,1.5,2.7c1.4,4.1,4,7.5,8.3,8.8c-0.3,0.5-0.9,0.8-1.9,0.9c-0.4,0-0.7,0.1-0.9,0.3
		c-0.2,0.2-0.5,0.4-0.7,0.4s-0.3-0.1-0.5-0.3c-2-2-4-5.3-5.3-10.1c-0.4-1.4-0.8-1.9-1.2-2.2C241.5,93.9,241,93.7,240.6,93.6z"/>
	<path class="st0_black" d="M237.4,159.3c-0.4-0.5-1.1-1-1.9-1.4c-0.9-0.4-1.8-1.1-2.4-1.9l0.2-0.3c1.1,0.5,2.6,0.9,3.9,0.9
		c0.9,0,1.1-0.4,1.1-1.3v-8.5h-5v0.5c0,0.4-0.8,1.1-1.2,1.1s-0.6-0.2-0.6-0.7c0-0.1,0-0.5,0-1c0-0.9,0.1-3,0.1-5.8
		c0-2,0-3.6-0.3-5.5c0.9,0.4,1.4,0.7,2,1c0.2,0.1,0.4,0.2,0.4,0.3h3c0.7-1.4,1.1-2.7,1.3-3.8c0.1-0.4,0.1-0.7,0.1-0.9h-10.5v5.1
		c0,8.1-0.7,15.3-5.7,20.6l-0.3-0.2c3.5-5.8,4.1-12,4.1-20c0-1.9,0-3.5-0.1-5.4c0-0.7-0.2-1.6-0.4-2.5c1,0.4,1.9,0.8,2.6,1.1
		c0.3,0.1,0.4,0.2,0.4,0.3h18.5l1.2-1.2c0.1-0.1,0.2-0.2,0.4-0.2c0.1,0,0.3,0.1,0.5,0.2c0.7,0.5,1.4,1,2.1,1.5
		c0.1,0.1,0.2,0.2,0.2,0.3s-0.1,0.2-0.3,0.2h-11.7c0.5,0.2,1,0.4,1.4,0.7c0.2,0.1,0.2,0.2,0.2,0.3c0,0.3-0.7,0.5-1,0.5
		c-0.6,1.1-1.5,2.3-2.3,3.2h6.8l0.7-0.8c0.2-0.2,0.3-0.3,0.4-0.3c0.1,0,0.2,0,0.4,0.2c0.4,0.3,0.8,0.6,1.2,0.9
		c0.1,0.1,0.3,0.2,0.3,0.4s-0.4,0.6-0.8,1c0,1.4,0.1,4.4,0.1,5.7c0,1.2,0.1,2.3,0.1,3.1c0,0.5-0.6,1.2-1.3,1.2
		c-0.5,0-0.7-0.5-0.7-0.8v-0.5H240c0,3.3,0,6.3,0,9.4C240.1,157.6,239.1,158.4,237.4,159.3z M225.3,157.3c2.9-1.6,5.8-4.1,7-6.4
		c0.2-0.4,0.4-1,0.4-1.7c1.3,0.9,2.1,1.4,2.4,1.7c0.2,0.1,0.2,0.2,0.2,0.3c0,0.5-1.2,0.5-1.4,0.5c-1.9,2.6-4.8,4.8-8.5,6
		L225.3,157.3z M244.7,141.3v-3.6h-11.4v3.6H244.7z M244.7,146v-3.8h-11.4v3.8H244.7z M242.9,149.7c4.3,2,7,4.2,7,5.7
		c0,1.1-0.4,1.4-0.9,1.4s-0.9-0.5-1.3-1.1c-0.7-1.2-2.7-3.9-5-5.7L242.9,149.7z"/>
	<path class="st0_black" d="M236.5,172.1c0.2,0.1,0.6,0.5,0.6,0.8c0,7-2.6,11.1-7.9,14.5c-1.1,0.7-2.2,1.1-2.7,1.1c-0.2,0-0.4-0.2-0.6-0.7
		c-0.1-0.2-0.2-0.4-0.4-0.7c-0.5-0.7-0.8-1.9-0.8-3.6c0-3.7,1.5-7.4,4.3-10c2.9-2.7,6.6-3.3,8.6-3.3c6.6,0,11.2,4.9,11.2,10.8
		c0,3.7-1.4,6.8-4.4,8.5c-2.6,1.5-6,2-8.1,2.1v-0.3c2.7-0.5,5.1-1.6,7-3.2c2.2-1.7,3.5-4.5,3.5-7.2c0-5.3-3.1-9.4-9.5-9.4
		c-2.6,0-5.5,1.1-7.5,3c-2.2,2.2-3.3,5.2-3.3,7.6c0,1.5,0.3,3.7,1,3.7c0.4,0,1.9-0.8,2.7-1.3C234.2,181.6,235.9,176.9,236.5,172.1z"
		/>
	<path class="st0_black" d="M227.7,233.1c-0.4,0-0.7-0.3-0.7-0.9c0-0.4,0.1-2.7,0.2-4.4c0.1-2,0.1-4.1,0.1-6.2v-0.8c0-1.3,0-2.5-0.1-3.4
		c-1.8,2.8-4,5.3-6.4,7.1l-0.3-0.2c3.7-3.8,7.1-9.5,8.1-14.1c0.1-0.5,0.2-1,0.2-1.5c1,0.5,2,1.1,2.7,1.5c0.2,0.1,0.2,0.2,0.2,0.3
		c0,0.4-0.8,0.6-1.3,0.7c-0.7,1.6-1.5,3.3-2.5,4.8c0.7,0.3,1.2,0.5,1.5,0.7c0.2,0.1,0.3,0.3,0.3,0.4c0,0.3-0.4,0.7-0.8,1
		c-0.1,0.9-0.1,1.9-0.1,2.9v0.9c0,1.9,0,3.6,0.1,5.2c0,1.9,0.1,3.7,0.1,4.5C229.1,232.3,228.3,233.1,227.7,233.1z M223.6,211.5
		c-0.5,0-1-0.4-1-1c0-0.8,0.4-1.2,0.9-1.6c1.4-1.1,2.3-2.3,2.4-4.5h0.4c0.1,0.5,0.1,1,0.2,1.4h9v-0.2c0-0.3,0-0.7-0.1-1.5
		c-0.1-0.9-0.2-1.9-0.4-2.6c1.1,0.3,2,0.6,2.7,0.9c0.4,0.1,0.5,0.2,0.5,0.4c0,0.3-0.5,0.7-0.9,0.9c-0.1,0.9-0.1,1.4-0.1,1.8v0.3h8.7
		l1.1-1c0.2-0.2,0.3-0.2,0.4-0.2c0.1,0,0.2,0,0.3,0.1c0.7,0.5,1.3,1.1,1.9,1.7c0.1,0.1,0.2,0.2,0.2,0.3c0,0.4-0.9,0.7-1.5,0.8
		c-0.9,1-2.2,2.1-3.8,3l-0.2-0.3c1-1.3,1.8-2.5,2.2-3.5h-20c-0.1,1.5-0.5,3-1.3,3.8C224.7,211.2,224.2,211.5,223.6,211.5z
		 M235.4,232.9c-0.4,0-0.6-0.2-0.6-0.7c0-0.2,0-1,0-2c0.1-2.9,0.1-5.7,0.1-8.2c0-1.4,0-4.1-0.3-5.9c0.9,0.4,1.5,0.7,2.1,1
		c0.2,0.1,0.3,0.2,0.3,0.3h1.7c0.5-1.2,0.9-2.4,1.1-3.4c0.1-0.3,0.1-0.8,0.1-0.9h-3.7c-0.6,0-1.7,0.1-2.3,0.5
		c-0.6-0.2-1.4-0.7-1.8-1.7c1.2,0.2,2.2,0.2,3.3,0.2h11.4l1-1c0.1-0.1,0.2-0.2,0.3-0.2s0.2,0.1,0.5,0.2c0.6,0.4,1.3,1,1.8,1.4
		c0.2,0.1,0.2,0.2,0.2,0.3s-0.1,0.2-0.3,0.2h-9.7c0.5,0.2,1,0.5,1.5,0.8c0.1,0.1,0.3,0.2,0.3,0.4c0,0.3-0.8,0.5-1.2,0.5
		c-0.5,0.9-1.3,1.9-1.9,2.6h5.8l0.7-0.8c0.2-0.2,0.3-0.3,0.4-0.3c0.1,0,0.3,0.1,0.5,0.2c0.4,0.3,0.8,0.6,1.2,0.9
		c0.1,0.1,0.3,0.2,0.3,0.4s-0.4,0.6-0.8,1c0,1.5,0.1,5.4,0.1,7.4c0,2.1,0.1,4.1,0.1,5.3c0,0.5-0.6,1.2-1.3,1.2
		c-0.5,0-0.7-0.5-0.7-0.8v-1.3h-9v1.2C236.6,232.2,235.8,232.9,235.4,232.9z M245.6,223.4v-5h-9v5H245.6z M245.6,229.7v-5.4h-9v5.4
		H245.6z"/>
</g>
<g>
	<g>
		<path class="st0_black" d="M94.1,376.9c0,0.9,0,1.9,0,3.1c0,1.7-0.5,3.2-1.4,4.5c-0.9,1.4-2,2.1-3,2.1c-0.6,0-0.9-0.2-0.9-0.6
			c0-0.7,0.7-1.5,1.3-1.5c0.3,0,0.4,0.1,0.7,0.2c0.3,0.1,0.4,0.2,0.6,0.2s0.4-0.2,0.6-0.7c0.1-0.4,0.3-1.3,0.3-4.3v-6.4
			c0-1.4-0.1-1.9-0.2-2.1c-0.2-0.3-0.4-0.5-0.7-0.5l-0.9,0.1c-0.2,0-0.3-0.1-0.3-0.3c0-0.3,0-0.4,0.3-0.4c0.8-0.2,2.4-0.6,3.4-1
			c0.2,0,0.3,0.1,0.3,0.2c-0.1,1.7-0.1,3.1-0.1,4.4C94.1,373.9,94.1,376.9,94.1,376.9z M94.4,363.4c0,0.8-0.7,1.4-1.4,1.4
			c-0.8,0-1.4-0.6-1.4-1.4c0-0.7,0.7-1.4,1.4-1.4C93.7,362,94.4,362.7,94.4,363.4z"/>
		<path class="st0_black" d="M106.1,373.3c0-1.3-0.1-1.8-0.2-2.1c-0.2-0.4-0.4-0.5-0.7-0.5l-0.9,0.1c-0.2,0-0.2-0.1-0.2-0.3
			c0-0.2,0-0.3,0.3-0.3c0.8-0.2,2.4-0.7,3.4-1c0.2,0,0.3,0.1,0.3,0.2c-0.1,1.8-0.1,3.2-0.1,4.4v3.2c0,2.1,0,2.4,0.2,2.6
			s0.5,0.4,1.5,0.4c0.2,0,0.2,0.1,0.2,0.3c0,0.3-0.1,0.3-0.2,0.3c-0.8,0-1.7-0.1-2.5-0.1s-1.9,0-2.6,0.1c-0.2,0-0.2-0.1-0.2-0.3
			c0-0.2,0-0.3,0.2-0.3c1-0.1,1.2-0.2,1.4-0.4c0.2-0.2,0.2-0.6,0.2-2.6v-3.7H106.1z M108.2,363.4c0,0.8-0.7,1.4-1.4,1.4
			c-0.7,0-1.4-0.6-1.4-1.4c0-0.7,0.7-1.4,1.4-1.4S108.2,362.7,108.2,363.4z"/>
		<path class="st0_black" d="M124.5,370.8c-0.5-0.7-1-1-1.7-1c-1.8,0-3.2,1.9-3.2,5.2c0,2.9,1.8,4.8,3.6,4.8c1.7,0,2.6-0.5,3.4-1.7
			c0.1-0.1,0.1-0.1,0.2-0.1c0.2,0,0.5,0.2,0.5,0.3c0,0.1,0,0.1,0,0.2c-1.1,1.8-2.6,2.6-4.4,2.6c-3,0-5.4-2.3-5.4-5.9
			s2.5-6.1,5.4-6.1c1.1,0,1.9,0.2,2.9,0.6c0.7,0.3,0.9,0.6,0.9,1.1c0,1-0.4,1.5-0.9,1.5c-0.3,0-0.5-0.2-1.2-1.1L124.5,370.8z"/>
		<path class="st0_black" d="M145.3,374.9c0,3.5-2.4,6-5.5,6c-3,0-5.5-2.3-5.5-5.9c0-3.5,2.5-6.1,5.5-6.1S145.3,371.2,145.3,374.9z
			 M136.5,374.9c0,3.6,1.3,5.2,3.3,5.2c1.9,0,3.3-1.7,3.3-5.2c0-3.7-1.4-5.2-3.3-5.2C137.9,369.7,136.5,371.4,136.5,374.9z"/>
		<path class="st0_black" d="M153,370.8c-0.2,0-0.2,0-0.2-0.4c0-0.2,0-0.2,0.3-0.3c0.8-0.2,2.3-0.6,3.3-1c0.2,0,0.3,0.1,0.3,0.2
			c0,0.7-0.1,1.4-0.1,2c1-1.6,2.4-2.3,3.9-2.3c2,0,3.6,1.3,3.6,3.5c0,0.9,0,2.2,0,2.8v1.6c0,2.1,0,2.3,0.2,2.6
			c0.2,0.3,0.4,0.4,1.4,0.5c0.2,0,0.2,0.1,0.2,0.3c0,0.2,0,0.3-0.2,0.3c-0.7,0-1.6-0.1-2.4-0.1c-0.8,0-1.8,0-2.6,0.1
			c-0.2,0-0.2-0.1-0.2-0.3c0-0.2,0-0.3,0.2-0.3c0.8,0,1.1-0.2,1.3-0.5c0.2-0.2,0.2-0.5,0.2-2.6V373c0-0.7-0.1-1-0.3-1.5
			c-0.4-0.9-1.1-1.3-2.2-1.3c-1,0-1.9,0.5-2.6,1.4c-0.4,0.6-0.6,1-0.6,2v3.3c0,2.1,0.1,2.4,0.2,2.6c0.2,0.3,0.4,0.4,1.4,0.5
			c0.2,0,0.2,0.1,0.2,0.3c0,0.2-0.1,0.3-0.2,0.3c-0.8,0-1.6-0.1-2.4-0.1c-0.8,0-1.8,0-2.6,0.1c-0.2,0-0.2-0.1-0.2-0.3
			c0-0.2,0-0.3,0.2-0.3c0.9-0.1,1.1-0.2,1.3-0.5c0.2-0.2,0.2-0.6,0.2-2.6v-3.6c0-1.3-0.1-1.7-0.2-2.1c-0.2-0.4-0.4-0.5-0.7-0.5
			L153,370.8z"/>
	</g>
	<g>
		<path class="st0_black" d="M171.4,49.4c0,0,0.4-0.1,1.1-0.6c0.7-0.5,1.4-1.5,1.5-2.2c0-0.5-3.5-4.4-3.9-4.8c-0.7-0.6-1.1-0.8-1.4-0.8
			h-0.1c-0.2,0-0.9,0-1.7,0.9l-2.2,2.2h-50.1l0.5-0.6c5.1-6.6,8.6-12.1,10.2-16l0.1-0.2h0.2c3.1-0.7,4.4-1.5,4.7-1.9
			c0-0.1,0.1-0.2,0-0.3c0-0.3-0.3-0.5-0.8-0.8c-2.5-1.6-4.5-2.7-6.5-3.8l-1.3-0.7h-2.2v0.4c0,1.4,0,2.8-0.1,3.8
			c-0.5,6.3-3.6,14.4-6.2,19.9l-0.1,0.2H90.7V44c-0.1-0.6-0.2-0.9-0.5-1.1c-2.7-1.3-4-1.8-5.3-2.2l-1-0.4h-0.1c-0.1,0-0.2,0-0.3,0.1
			c-0.1,0.1-0.2,0.2-0.1,0.4c0.3,2.1,0.5,4.1,0.7,6.5c0.3,5.6,0.3,15.6,0.3,22.9c0,8.3-0.1,23.3-0.4,29.3c-0.4,8.3-0.6,14-0.6,17.9
			c0,1.3,0.9,3.3,2.2,3.3c1.5,0,4.9-3.5,4.9-5.4c0-5.4,0-11.2-0.1-17.1v-0.4c0-6.1-0.1-12.4-0.1-18.3c0-8.8,0-17.9,0.1-26.7
			c0-2,0-3.7,0.1-5.6v-0.3h20.3v27.7c0,7.7-0.1,14.3-0.4,19.4v0.5v0.3c-0.2,5.3-0.6,13.3-0.6,14.7c0,1.5,1,3,2.5,3
			c2,0,5.1-3.4,5.1-5.7c0-1.5-0.1-8-0.3-12.7c-0.1-5.5-0.3-13.6-0.3-19.8V47h21v28.5c0,7.7-0.1,14.3-0.4,19.4v0.5v0.3
			c-0.2,5.3-0.6,13.3-0.6,14.7c0,1.5,1,3,2.5,3c2,0,5.1-3.4,5.1-5.7c0-1.5-0.1-8-0.3-12.7c-0.1-5.5-0.3-13.5-0.3-19.8V47h21.6v58.5
			c0,4.8-2.3,5.3-4,5.8l-0.4,0.1c-0.7,0.2-1.3,0.3-2,0.3c-1.4,0-2.9-0.3-5.2-0.8l-1.1-0.2l-1.5-0.3h-0.1c-0.1,0-0.3,0.1-0.4,0.2
			c-0.1,0.2-0.1,0.3,0,0.5c2.2,2.5,2.8,3,5,4.6l1.2,0.9c0.6,0.4,1.3,0.9,2.2,1.5s2,1.3,3.3,2.2c0.1,0.1,0.2,0.1,0.2,0.1
			c0.1,0,0.1,0,0.2-0.1c4.7-2.9,8.6-5.8,8.6-12.2c0-3.5-0.1-11.9-0.3-18.6C171,80,171,61.8,171,50.9v-1.5H171.4z"/>
		<path class="st0_black" d="M152.4,255.8l-0.3-0.3c-0.7-0.6-1.1-0.8-1.6-0.8c-0.6,0-0.9,0.3-1.3,0.7l-3.5,3H99.3c-4.1,0-8,0-12.4-0.9
			c-0.1,0-0.1,0-0.2,0.1c0,0.1-0.1,0.1,0,0.2c1.6,4.2,5,5.9,6.9,6.5c0.1,0,0.1,0,0.2,0c2.2-1.9,6.6-1.9,8.8-1.9h44.7
			c-4.4,13.6-13,29.2-23.2,41.8c-0.5,0.7-1.2,2-1.2,2.6c0,1.4,0.9,2.3,2.4,2.3c4.7,0,6.9-2.1,8.3-4c7.5-10,14.9-23.8,20.9-38.9
			c1.5-0.9,4.2-2.8,4.2-4.2c0-0.6-0.5-1.2-0.8-1.5C155.9,258.6,154.3,257.3,152.4,255.8z"/>
		<path class="st0_black" d="M108.4,243.5c0.1,0,0.2,0,0.2-0.1c2.4-1.8,6.6-1.8,8.8-1.8h30.7c0.2,0,0.3,0,0.4-0.1c0.2-0.1,0.3-0.2,0.3-0.4
			c0-0.1-0.2-0.3-0.4-0.4c-0.1,0-0.1-0.1-0.1-0.1c-0.9-0.9-2-1.7-3.2-2.6c-0.8-0.6-1.7-1.3-2.7-2.1c-0.7-0.5-1-0.7-1.2-0.7
			c-0.3,0-0.7,0.2-0.9,0.4l-4,3.2h-22.1c-3.7,0-7.1,0-11-0.6c0,0,0,0-0.1,0s-0.3,0.1-0.3,0.2c-0.1,0.1-0.1,0.3,0,0.4
			C104.3,241.5,106.6,242.8,108.4,243.5C108.3,243.5,108.3,243.5,108.4,243.5z"/>
		<path class="st0_black" d="M78,21.8L78,21.8c0.2,0,0.3,0,0.3-0.1c2.4-1.8,6.6-1.8,8.8-1.8h94.7c0.2,0,0.3,0,0.4-0.1
			c0.2-0.1,0.3-0.2,0.3-0.4c0-0.1-0.2-0.3-0.4-0.4c-0.1,0-0.1-0.1-0.1-0.1c-0.9-0.9-2-1.7-3.2-2.6c-0.8-0.6-1.7-1.3-2.7-2.1
			c-0.7-0.5-1-0.7-1.2-0.7c-0.3,0-0.7,0.2-0.9,0.4l-4,3.2H84c-3.7,0-7.1,0-11-0.6c0,0,0,0-0.1,0s-0.3,0.1-0.3,0.2
			c-0.1,0.1-0.1,0.3,0,0.4C74,19.8,76.3,21.1,78,21.8z"/>
		<path class="st0_black" d="M189.3,244.5c-24.1-5.5-39.6-21.9-53.4-38.2c-2.8-3.3-4.3-5.1-6.5-7.6c-0.9-1-1.3-1.3-2-1.8l-0.7-0.5l0.9-0.2
			c2.2-0.4,4.5-1.4,4.5-2.4c0-0.1-0.1-0.5-0.8-0.8c-3.3-1.5-7.4-3-10.9-4.2h-0.1c-0.1,0-0.2,0-0.2,0.1c-0.1,0.1-0.2,0.2-0.2,0.3
			c-0.3,3.5-2,7.4-4.6,12.2c-8.5,16.2-25.9,37.9-49.5,50.4c-0.1,0.1-0.2,0.1-0.2,0.3c0,0.1,0,0.2,0,0.3c0.1,0.1,0.3,0.3,0.4,0.3h0.1
			c23.7-8.5,44.4-27.5,59.9-54.9l0.2-0.4l0.3,0.3c0.8,0.7,1.3,1.2,1.8,1.8c1.3,1.8,2.1,3,4.3,6.4c14,20.9,25.2,33.5,37.4,42.4
			c1.6,1.2,4.4,2.8,5.3,2.8c0.9,0,1.3-0.4,2.1-1.3c0.8-0.9,1.7-1.7,3.7-1.7c4.3,0,7.1-0.9,8.5-2.8c0.1-0.1,0.1-0.3,0.1-0.4
			C189.5,244.6,189.4,244.6,189.3,244.5z"/>
	</g>
</g>
</svg>
