<?xml version="1.0" encoding="utf-8"?>
<!-- Generator: Adobe Illustrator 25.2.1, SVG Export Plug-In . SVG Version: 6.00 Build 0)  -->
<svg version="1.1" id="レイヤー_1" xmlns="http://www.w3.org/2000/svg" xmlns:xlink="http://www.w3.org/1999/xlink" x="0px"
	 y="0px" viewBox="0 0 40 90" style="enable-background:new 0 0 40 90;" xml:space="preserve">
<style type="text/css">
	.st0{fill:#595757;}
</style>
<g>
	<path class="st0" d="M33.3,11.1c0,0,0.1,0,0.3-0.2c0.2-0.1,0.4-0.5,0.5-0.7c0-0.2-1.1-1.3-1.2-1.4c-0.2-0.2-0.3-0.2-0.4-0.2l0,0
		c-0.1,0-0.3,0-0.5,0.3l-0.7,0.7H16l0.1-0.2c1.5-2,2.6-3.7,3.1-4.8l0-0.1l0.1,0c0.9-0.2,1.3-0.4,1.4-0.6c0,0,0-0.1,0-0.1
		c0-0.1-0.1-0.2-0.2-0.3c-0.8-0.5-1.4-0.8-2-1.1l-0.4-0.2h-0.7v0.1c0,0.4,0,0.8,0,1.2c-0.2,1.9-1.1,4.4-1.9,6l0,0.1H8.9c0,0,0,0,0,0
		c0-0.2-0.1-0.3-0.2-0.3C7.9,8.8,7.5,8.6,7.1,8.5L6.8,8.4c0,0,0,0,0,0c0,0-0.1,0-0.1,0c0,0-0.1,0.1,0,0.1c0.1,0.6,0.2,1.2,0.2,2
		c0.1,1.7,0.1,4.7,0.1,6.9c0,2.5,0,7.1-0.1,8.9c-0.1,2.5-0.2,4.3-0.2,5.4c0,0.4,0.3,1,0.7,1c0.4,0,1.5-1.1,1.5-1.6
		c0-1.6,0-3.4,0-5.2l0-0.1c0-1.9,0-3.7,0-5.5c0-2.7,0-5.4,0-8.1c0-0.6,0-1.1,0-1.7l0-0.1h6.2v8.4c0,2.3,0,4.3-0.1,5.9l0,0.1l0,0.1
		c-0.1,1.6-0.2,4-0.2,4.4c0,0.4,0.3,0.9,0.7,0.9c0.6,0,1.6-1,1.6-1.7c0-0.5,0-2.4-0.1-3.8c0-1.7-0.1-4.1-0.1-6v-8.3h6.4V19
		c0,2.3,0,4.3-0.1,5.9l0,0.1l0,0.1c-0.1,1.6-0.2,4-0.2,4.4c0,0.4,0.3,0.9,0.7,0.9c0.6,0,1.6-1,1.6-1.7c0-0.4,0-2.4-0.1-3.8
		c0-1.7-0.1-4.1-0.1-6v-8.5h6.5v17.7c0,1.4-0.7,1.6-1.2,1.7l-0.1,0C30,30,29.8,30,29.6,30c-0.4,0-0.9-0.1-1.6-0.3l-0.3-0.1l-0.4-0.1
		c0,0,0,0,0,0c0,0-0.1,0-0.1,0.1c0,0,0,0.1,0,0.1c0.7,0.8,0.9,0.9,1.5,1.4l0.4,0.3c0.2,0.1,0.4,0.3,0.7,0.5c0.3,0.2,0.6,0.4,1,0.7
		c0,0,0,0,0.1,0c0,0,0,0,0.1,0c1.4-0.9,2.6-1.7,2.6-3.7c0-1.1,0-3.6-0.1-5.6c0-2.9,0-8.4,0-11.7V11.1L33.3,11.1z"/>
	<path class="st0" d="M27.6,73.6l-0.1-0.1c-0.2-0.2-0.3-0.3-0.5-0.3c-0.2,0-0.3,0.1-0.4,0.2l-1.1,0.9H11.4c-1.2,0-2.4,0-3.8-0.3
		c0,0,0,0-0.1,0c0,0,0,0,0,0.1c0.5,1.3,1.5,1.8,2.1,2c0,0,0,0,0.1,0c0.7-0.6,2-0.6,2.7-0.6H26c-1.3,4.1-3.9,8.8-7,12.7
		c-0.2,0.2-0.4,0.6-0.4,0.8c0,0.4,0.3,0.7,0.7,0.7c1.4,0,2.1-0.6,2.5-1.2c2.3-3,4.5-7.2,6.3-11.8c0.4-0.3,1.3-0.8,1.3-1.3
		c0-0.2-0.2-0.3-0.3-0.4C28.6,74.5,28.1,74.1,27.6,73.6z"/>
	<path class="st0" d="M14.2,69.9C14.2,69.9,14.3,69.9,14.2,69.9c0.8-0.6,2.1-0.6,2.7-0.6h9.3c0,0,0.1,0,0.1,0c0.1,0,0.1-0.1,0.1-0.1
		c0,0-0.1-0.1-0.1-0.1c0,0,0,0,0,0c-0.3-0.3-0.6-0.5-1-0.8c-0.2-0.2-0.5-0.4-0.8-0.6c-0.2-0.2-0.3-0.2-0.4-0.2
		c-0.1,0-0.2,0.1-0.3,0.1l-1.2,1H16c-1.1,0-2.2,0-3.3-0.2c0,0,0,0,0,0c0,0-0.1,0-0.1,0.1c0,0,0,0.1,0,0.1
		C12.9,69.3,13.7,69.7,14.2,69.9C14.2,69.9,14.2,69.9,14.2,69.9z"/>
	<path class="st0" d="M5,2.7C5,2.7,5,2.7,5,2.7c0.1,0,0.1,0,0.1,0c0.7-0.5,2-0.5,2.7-0.5h28.7c0,0,0.1,0,0.1,0
		c0.1,0,0.1-0.1,0.1-0.1c0,0-0.1-0.1-0.1-0.1c0,0,0,0,0,0c-0.3-0.3-0.6-0.5-1-0.8c-0.2-0.2-0.5-0.4-0.8-0.6
		c-0.2-0.2-0.3-0.2-0.4-0.2c-0.1,0-0.2,0.1-0.3,0.1l-1.2,1H6.8c-1.1,0-2.2,0-3.3-0.2c0,0,0,0,0,0c0,0-0.1,0-0.1,0.1c0,0,0,0.1,0,0.1
		C3.8,2.1,4.5,2.5,5,2.7z"/>
	<path class="st0" d="M38.7,70.2c-7.3-1.7-12-6.6-16.2-11.6c-0.8-1-1.3-1.5-2-2.3c-0.3-0.3-0.4-0.4-0.6-0.5l-0.2-0.1l0.3,0
		c0.7-0.1,1.4-0.4,1.4-0.7c0,0,0-0.2-0.3-0.3c-1-0.5-2.2-0.9-3.3-1.3c0,0,0,0,0,0c0,0,0,0-0.1,0c0,0-0.1,0.1-0.1,0.1
		c-0.1,1-0.6,2.2-1.4,3.7c-2.6,4.9-7.9,11.5-15,15.3c0,0-0.1,0-0.1,0.1c0,0,0,0.1,0,0.1c0,0,0.1,0.1,0.1,0.1c0,0,0,0,0,0
		c7.2-2.6,13.4-8.3,18.1-16.6l0.1-0.1l0.1,0.1c0.2,0.2,0.4,0.4,0.5,0.5c0.4,0.6,0.6,0.9,1.3,1.9c4.2,6.3,7.6,10.2,11.3,12.8
		c0.5,0.4,1.3,0.9,1.6,0.9c0.3,0,0.4-0.1,0.6-0.4c0.2-0.3,0.5-0.5,1.1-0.5c1.3,0,2.2-0.3,2.6-0.8C38.8,70.4,38.8,70.3,38.7,70.2
		C38.8,70.3,38.8,70.2,38.7,70.2z"/>
</g>
</svg>
