<svg version="1.1" id="レイヤー_1" xmlns="http://www.w3.org/2000/svg" x="0px" y="0px" viewBox="0 0 255 400" style="enable-background:new 0 0 255 400;" xml:space="preserve"><style type="text/css"> .st0{opacity:0.8;} .st1{fill:#FFFFFF;}</style><g> <g> <g class="st0"> <path class="st1" d="M235.8,21.1c-1.1,0-2.2,0-3.8,0c-2,0-3.8-0.6-5.4-1.7c-1.7-1.1-2.5-2.4-2.5-3.6c0-0.7,0.3-1,0.7-1 c0.8,0,1.8,0.9,1.8,1.6c0,0.3-0.1,0.5-0.2,0.8c-0.2,0.4-0.2,0.5-0.2,0.7c0,0.3,0.2,0.5,0.9,0.7c0.5,0.2,1.5,0.3,5.2,0.3h7.7 c1.7,0,2.3-0.1,2.5-0.2c0.4-0.2,0.6-0.5,0.6-0.9l-0.1-1c0-0.2,0.1-0.3,0.3-0.3c0.4,0,0.5,0.1,0.5,0.4c0.2,1,0.8,2.9,1.2,4.1 c0,0.2-0.1,0.3-0.2,0.3c-2-0.1-3.8-0.2-5.3-0.2H235.8z M251.9,21.4c-0.9,0-1.7-0.8-1.7-1.7c0-0.9,0.7-1.7,1.7-1.7 c0.9,0,1.7,0.8,1.7,1.7C253.7,20.7,252.8,21.4,251.9,21.4z"/> <path class="st1" d="M240.1,37.3c1.5,0,2.1-0.1,2.5-0.2c0.4-0.2,0.6-0.5,0.6-0.9l-0.1-1.1c0-0.2,0.1-0.2,0.4-0.2 c0.3,0,0.3,0.1,0.4,0.4c0.2,1,0.8,2.9,1.3,4.1c0,0.2-0.1,0.4-0.3,0.4c-2.2-0.1-3.8-0.1-5.3-0.1h-3.8c-2.5,0-2.9,0-3.1,0.2 c-0.3,0.2-0.4,0.6-0.5,1.8c0,0.2-0.1,0.2-0.3,0.2c-0.3,0-0.4-0.1-0.4-0.2c0-0.9,0.1-2,0.1-3c0-0.9,0-2.2-0.1-3.1 c0-0.2,0.1-0.2,0.4-0.2c0.2,0,0.3,0.1,0.3,0.2c0.1,1.2,0.2,1.5,0.5,1.7c0.2,0.2,0.7,0.2,3.1,0.2H240.1z M251.9,39.9 c-0.9,0-1.7-0.9-1.7-1.7c0-0.9,0.8-1.7,1.7-1.7c0.9,0,1.7,0.9,1.7,1.7C253.6,39,252.8,39.9,251.9,39.9z"/> <path class="st1" d="M243.1,61.2c0.8-0.6,1.2-1.3,1.2-2c0-2.2-2.3-3.8-6.2-3.8c-3.5,0-5.8,2.2-5.8,4.3c0,2,0.6,3.1,2,4.1 c0.1,0.1,0.2,0.2,0.2,0.2c0,0.2-0.2,0.6-0.4,0.6c-0.1,0-0.1,0-0.2-0.1c-2.2-1.3-3.1-3.1-3.1-5.3c0-3.6,2.8-6.4,7.1-6.4 c4.3,0,7.3,2.9,7.3,6.5c0,1.3-0.2,2.3-0.7,3.5c-0.4,0.9-0.7,1.1-1.3,1.1c-1.2,0-1.8-0.5-1.8-1c0-0.4,0.2-0.6,1.3-1.4L243.1,61.2z "/> <path class="st1" d="M238.2,88c-4.2,0-7.2-2.8-7.2-6.6c0-3.6,2.8-6.5,7.1-6.5c4.3,0,7.3,3,7.3,6.5C245.3,84.9,242.6,88,238.2,88z M238.1,77.4c-4.3,0-6.2,1.6-6.2,3.9c0,2.3,2.1,4,6.2,4c4.5,0,6.3-1.7,6.3-4S242.3,77.4,238.1,77.4z"/> <path class="st1" d="M243.1,98.9c0-0.2,0.1-0.3,0.5-0.3c0.2,0,0.3,0.1,0.3,0.4c0.2,1,0.8,2.8,1.3,3.9c0,0.2-0.1,0.3-0.3,0.3 c-0.8,0-1.7-0.1-2.4-0.1c1.9,1.2,2.8,2.8,2.8,4.6c0,2.4-1.5,4.3-4.2,4.3c-1.1,0-2.6,0-3.4,0h-1.9c-2.5,0-2.8,0.1-3.1,0.2 c-0.3,0.2-0.4,0.5-0.6,1.6c0,0.2-0.1,0.3-0.3,0.3c-0.3,0-0.3-0.1-0.3-0.3c0-0.9,0.1-2,0.1-2.9c0-1,0-2.1-0.1-3.1 c0-0.2,0.1-0.3,0.3-0.3c0.2,0,0.3,0.1,0.3,0.3c0.1,1,0.2,1.3,0.6,1.6c0.3,0.2,0.6,0.3,3.1,0.3h4.7c0.9,0,1.3-0.1,1.7-0.3 c1-0.5,1.6-1.3,1.6-2.6c0-1.2-0.6-2.2-1.7-3.1c-0.7-0.5-1.2-0.7-2.4-0.7h-3.9c-2.5,0-2.9,0.1-3.1,0.2c-0.3,0.2-0.4,0.4-0.6,1.7 c0,0.2-0.1,0.2-0.3,0.2c-0.3,0-0.3-0.1-0.3-0.2c0-0.9,0.1-2,0.1-2.9c0-1,0-2.1-0.1-3.1c0-0.2,0.1-0.2,0.3-0.2 c0.2,0,0.3,0.1,0.3,0.2c0.1,1.1,0.2,1.3,0.6,1.6c0.3,0.2,0.8,0.3,3.1,0.3h4.3c1.6,0,2-0.1,2.5-0.2c0.5-0.2,0.6-0.5,0.6-0.9 L243.1,98.9z"/> </g> </g> <g> <g> <path class="st1" d="M39.9,19.2l-7.6,0.1c-1.4,0-2,0.1-2.3,0.3c-0.3,0.2-0.4,0.4-0.4,1.4c0,0.1-0.1,0.1-0.2,0.1 c-0.2,0-0.2,0-0.2-0.1c0-0.7,0.1-1.4,0.1-2c0-0.6,0-1.5-0.1-2c0-0.1,0-0.2,0.2-0.2c0.2,0,0.2,0,0.2,0.2c0.1,0.9,0.2,1.1,0.5,1.2 c0.3,0.2,0.9,0.3,2.3,0.3l6.6,0.1c1,0,1.6-0.1,1.8-0.3c0.2-0.2,0.4-0.6,0.5-1.5c0-0.1,0.1-0.2,0.2-0.2c0.3,0,0.3,0,0.3,0.2 c0,0.6-0.1,1.2-0.1,1.7c0,0.4,0,0.9,0,1.6c-0.7,0.4-1.3,0.7-2.2,1.4l-5.9,4.2c-0.8,0.6-1.6,1.1-2.5,1.7c0.8,0,1.5,0,2.2,0l5.2,0 c1.3,0,2-0.1,2.3-0.3c0.3-0.2,0.4-0.5,0.4-1.4c0-0.1,0.1-0.2,0.2-0.2c0.3,0,0.3,0,0.3,0.2c0,0.7-0.1,1.4-0.1,2c0,0.6,0,1.4,0.1,2 c0,0.1,0,0.2-0.3,0.2c-0.2,0-0.2,0-0.2-0.2c-0.1-0.8-0.2-1.1-0.4-1.2c-0.2-0.2-0.9-0.3-2.3-0.3l-6.3-0.1c-0.3,0-0.6,0-0.9,0 c-0.8,0-1.5,0-2.2,0c-0.4-0.7-0.5-0.8-0.5-0.8c0,0,0-0.1,0.1-0.1c0.9-0.6,1.6-1,3.1-2l8-5.7V19.2z"/> <path class="st1" d="M34.1,36.5c0.9,0,1.3-0.1,1.5-0.1c0.3-0.1,0.4-0.3,0.4-0.5l0-0.7c0-0.1,0-0.1,0.2-0.1c0.2,0,0.2,0,0.2,0.2 c0.1,0.6,0.5,1.7,0.7,2.4c0,0.1-0.1,0.2-0.2,0.2c-1.3-0.1-2.2-0.1-3.1-0.1h-2.2c-1.5,0-1.7,0-1.8,0.1s-0.3,0.3-0.3,1.1 c0,0.1-0.1,0.1-0.2,0.1c-0.2,0-0.2,0-0.2-0.1c0-0.5,0-1.2,0-1.7c0-0.6,0-1.3,0-1.8c0-0.1,0-0.1,0.2-0.1c0.1,0,0.2,0,0.2,0.1 c0.1,0.7,0.1,0.9,0.3,1c0.1,0.1,0.4,0.1,1.8,0.1H34.1z M41.1,38.1c-0.6,0-1-0.5-1-1c0-0.5,0.4-1,1-1c0.5,0,1,0.5,1,1 C42.1,37.6,41.6,38.1,41.1,38.1z"/> <path class="st1" d="M33.2,47.2c0.3,0.3,0.6,0.6,0.9,0.9l1,1c0.6,0.6,0.9,0.8,1,0.8c0.2,0,0.3-0.2,0.3-0.8c0-0.1,0-0.1,0.2-0.1 c0.2,0,0.2,0,0.2,0.1c0,0.5,0,1.2,0,1.7c0,0.5,0,1.1,0.1,1.6c0,0.1,0,0.1-0.2,0.1c-0.2,0-0.2,0-0.2-0.1c0-0.4-0.1-0.8-0.3-1 c-0.1-0.2-0.4-0.6-1.1-1.4l-0.8-0.9c-0.3-0.3-0.5-0.5-0.7-0.7c-1.1,0.9-2.1,1.8-3.1,2.8c-0.4,0.4-0.7,0.8-0.8,1 c-0.1,0.2-0.1,0.4-0.2,0.8c0,0.1-0.1,0.2-0.2,0.2c-0.2,0-0.2,0-0.2-0.2c0-0.4,0.1-1,0.1-1.4c0-0.4,0-0.6,0-1.1 c0.3-0.2,0.5-0.4,0.8-0.6c1.1-1,2.1-1.9,3-2.7h-1.3c-1.4,0-1.7,0-1.8,0.1c-0.2,0.1-0.3,0.3-0.3,1c0,0.1-0.1,0.1-0.2,0.1 c-0.2,0-0.2,0-0.2-0.1c0-0.6,0-1.1,0-1.7c0-0.6,0-1.3,0-1.8c0-0.1,0-0.1,0.2-0.1c0.2,0,0.2,0,0.2,0.1c0.1,0.7,0.1,0.8,0.3,0.9 c0.2,0.1,0.5,0.2,1.8,0.2h7.9c1,0,1.3-0.1,1.5-0.1c0.3-0.1,0.3-0.3,0.3-0.5l0-0.6c0-0.1,0-0.1,0.3-0.1c0.1,0,0.2,0,0.2,0.2 c0.1,0.6,0.4,1.7,0.7,2.4c0,0.1-0.1,0.2-0.1,0.2c-1.2-0.1-2.6-0.1-4.3-0.1H33.2z"/> <path class="st1" d="M33.2,60.4c0.3,0.3,0.6,0.6,0.9,0.9l1,1c0.6,0.6,0.9,0.8,1,0.8c0.2,0,0.3-0.2,0.3-0.8c0-0.1,0-0.1,0.2-0.1 c0.2,0,0.2,0,0.2,0.1c0,0.5,0,1.2,0,1.7c0,0.5,0,1.1,0.1,1.6c0,0.1,0,0.1-0.2,0.1c-0.2,0-0.2,0-0.2-0.1c0-0.4-0.1-0.8-0.3-1 c-0.1-0.2-0.4-0.6-1.1-1.4l-0.8-0.9c-0.3-0.3-0.5-0.5-0.7-0.7c-1.1,0.9-2.1,1.8-3.1,2.8c-0.4,0.4-0.7,0.8-0.8,1 c-0.1,0.2-0.1,0.4-0.2,0.8c0,0.1-0.1,0.2-0.2,0.2c-0.2,0-0.2,0-0.2-0.2c0-0.4,0.1-1,0.1-1.4c0-0.4,0-0.6,0-1.1 c0.3-0.2,0.5-0.4,0.8-0.6c1.1-1,2.1-1.9,3-2.7h-1.3c-1.4,0-1.7,0-1.8,0.1s-0.3,0.3-0.3,1c0,0.1-0.1,0.1-0.2,0.1 c-0.2,0-0.2,0-0.2-0.1c0-0.6,0-1.1,0-1.7c0-0.6,0-1.3,0-1.8c0-0.1,0-0.1,0.2-0.1c0.2,0,0.2,0,0.2,0.1c0.1,0.7,0.1,0.8,0.3,0.9 c0.2,0.1,0.5,0.2,1.8,0.2h7.9c1,0,1.3-0.1,1.5-0.1c0.3-0.1,0.3-0.3,0.3-0.5l0-0.6c0-0.1,0-0.1,0.3-0.1c0.1,0,0.2,0,0.2,0.2 c0.1,0.6,0.4,1.7,0.7,2.4c0,0.1-0.1,0.2-0.1,0.2c-1.2-0.1-2.6-0.1-4.3-0.1H33.2z"/> <path class="st1" d="M33,78.5c-2.5,0-4.3-1.7-4.3-3.9c0-2.1,1.7-3.8,4.1-3.8c2.5,0,4.3,1.8,4.3,3.8C37.2,76.7,35.6,78.5,33,78.5z M33,72.3c-2.5,0-3.7,0.9-3.7,2.3c0,1.3,1.2,2.3,3.7,2.3c2.6,0,3.7-1,3.7-2.3S35.4,72.3,33,72.3z"/> <path class="st1" d="M12,28c0.7,0.3,1.4,0.6,2.3,0.8c0,0.6,0,1,0,1.5c0,0.5,0,1.3,0.1,1.8c0,0.1-0.1,0.2-0.3,0.2 c-0.2,0-0.2,0-0.2-0.2c-0.1-0.9-0.2-1.2-0.4-1.4c-0.2-0.1-0.7-0.2-1.6-0.2l-7,0.1c-1.8,0-2.1,0.1-2.3,0.3 c-0.3,0.2-0.3,0.4-0.4,1.4c0,0.1-0.1,0.2-0.2,0.2c-0.2,0-0.2-0.1-0.2-0.2c0-0.7,0.1-1.7,0.1-2.4c0-0.7,0-1.6-0.1-2.3 c0-0.1,0.1-0.1,0.2-0.1c0.2,0,0.2,0,0.2,0.1c0.1,1,0.2,1.2,0.4,1.3c0.2,0.1,0.6,0.2,1.6,0.2l8.3-0.1V29l-6.2-2.7 c-1.9-0.8-3.1-1.3-4.4-1.9c-0.1-0.1-0.2-0.1-0.2-0.3c0-0.1,0-0.1,0.2-0.2c1.4-0.6,2.6-1,4.1-1.7l6.6-2.9v-0.2l-7.6-0.1 c-1.4,0-2.1,0.1-2.3,0.3c-0.3,0.2-0.3,0.4-0.4,1.3c0,0.1-0.1,0.2-0.2,0.2c-0.2,0-0.2,0-0.2-0.2c0-0.7,0.1-1.3,0.1-2 c0-0.6,0-1.4-0.1-2c0-0.1,0.1-0.2,0.2-0.2c0.2,0,0.2,0,0.2,0.2c0.1,0.8,0.2,1.1,0.4,1.2c0.4,0.2,0.8,0.3,2.3,0.4l7.2,0.2 c0.8,0,1.2-0.1,1.4-0.2c0.2-0.2,0.3-0.4,0.4-1.4c0-0.1,0.1-0.2,0.2-0.2c0.3,0,0.3,0.1,0.3,0.2c0,0.7-0.1,1.5-0.1,1.9 c0,0.5,0,0.9,0,1.6c-0.7,0.2-1.4,0.4-2,0.7l-5.8,2.5c-0.8,0.4-1.6,0.7-2.5,1.1c0.9,0.4,1.6,0.6,2.5,1.1L12,28z"/> <path class="st1" d="M3.6,42.6c-1.1,0-1.5,0.3-1.5,0.7c0,0.2,0,0.3,0.1,0.4c0,0.1,0.1,0.1,0.1,0.2c0,0.1-0.1,0.2-0.3,0.2 c0,0-0.1,0-0.1-0.1c-0.3-0.4-0.4-0.9-0.4-1.3c0-0.6,0.3-1.1,0.9-1.3c-0.7-0.8-1-1.5-1-2.6c0-1.2,0.7-2.1,1.8-2.1 c0.8,0,1.2,0.3,1.6,0.6c0.3,0.3,0.5,0.8,1,2.1c0.2,0.7,0.4,1.1,0.6,1.4c0.2,0.2,0.4,0.4,0.7,0.4h0.5c1.3,0,1.8-0.4,1.8-1.1 c0-0.6-0.2-1-0.4-1.2c-0.2-0.2-0.4-0.3-0.9-0.3c-0.4,0-0.8-0.5-0.8-1.1c0-0.3,0.1-0.5,0.5-0.5c1,0,2.1,1.5,2.1,3.2 c0,1.8-0.6,2.4-2.3,2.4L3.6,42.6z M6,41.3c-0.3-0.2-0.4-0.5-0.8-1.7c-0.4-1-0.9-1.5-1.8-1.5c-0.8,0-1.4,0.6-1.4,1.3 c0,1.1,0.7,1.8,1.5,1.8L6,41.3z"/> <path class="st1" d="M8.7,48.2C8.7,48,8.8,48,9,48c0.2,0,0.2,0,0.3,0.2c0.1,0.5,0.4,1,0.7,1.3c0.3,0.3,0.8,0.6,1.2,0.7 c0.1,0,0.2,0.1,0.2,0.3c0,0.2,0,0.2-0.2,0.2c-0.4,0-1.2-0.1-1.7-0.1c0,0.7,0,1.7,0,2.4c0,0.1,0,0.1-0.1,0.1L8.9,53 c-0.1,0-0.1-0.1-0.1-0.2c0.1-0.6,0.1-1.6,0.1-2.2l-4.4,0c-1,0-1.5,0.1-1.8,0.4c-0.3,0.2-0.5,0.6-0.5,1s0.2,0.8,0.5,1.1 c0,0,0.1,0.1,0.1,0.1c0,0.1-0.2,0.3-0.3,0.3c0,0-0.1,0-0.1-0.1c-0.6-0.5-1-1.2-1-1.9c0-0.7,0.2-1.3,0.6-1.7 c0.4-0.4,1-0.5,1.9-0.5c0.8,0,1.6,0,2.4,0l2.5,0L8.7,48.2z"/> <path class="st1" d="M5.3,59.4c0.7-1.6,1.3-2,2.4-2c1.2,0,2.1,1,2.1,2.5c0,0.3-0.1,0.7-0.2,1.2c0,0.2-0.1,0.4-0.1,0.7 c0,0.1,0,0.2,0,0.4c-0.6,0-1.3,0.1-1.9,0.1H7.6c-0.1,0-0.1-0.1-0.1-0.2c0-0.1,0-0.1,0.1-0.2c1.1-0.4,1.7-1.1,1.7-2 c0-0.8-0.5-1.4-1.3-1.4c-0.5,0-0.9,0.2-1.4,1.5l-0.3,0.6c-0.7,1.6-1.4,2-2.4,2c-1.4,0-2.5-1-2.5-2.9c0-0.9,0.2-1.5,0.4-2.3 c0.6-0.2,1.1-0.3,1.7-0.4l0.1,0c0.1,0,0.1,0.1,0.1,0.2c0,0.1,0,0.2-0.1,0.2c-1.1,0.5-1.8,1.4-1.8,2.3c0,1,0.6,1.6,1.5,1.6 c0.7,0,1.1-0.3,1.6-1.5L5.3,59.4z"/> <path class="st1" d="M2,75.8C2,75.9,2,76,1.8,76c-0.2,0-0.2,0-0.2-0.2c0-0.7-0.2-1.7-0.3-2.3c0-0.1,0.1-0.2,0.2-0.2 c0.5,0,1,0,1.5,0c-1-0.6-1.6-1.6-1.6-2.7c0-1.5,0.9-2.5,2.4-2.5c0.7,0,1.2,0,1.9,0H7c0.9,0,1.2,0,1.4-0.1 c0.3-0.1,0.4-0.3,0.4-0.5l0-0.6c0-0.1,0.1-0.2,0.2-0.2c0.2,0,0.2,0,0.3,0.2c0.1,0.7,0.3,1.6,0.5,2.3c0,0.1-0.1,0.2-0.2,0.2 c-1,0-1.8-0.1-3-0.1H4.7c-1,0-1.3,0.1-1.6,0.2c-0.6,0.3-0.9,0.8-0.9,1.5c0,0.7,0.4,1.3,1,1.8c0.4,0.3,0.7,0.4,1.4,0.4H7 c0.9,0,1.2,0,1.4-0.1c0.3-0.1,0.4-0.3,0.4-0.5l0-0.6C8.7,72,8.8,72,9,72c0.2,0,0.2,0,0.3,0.2c0.1,0.7,0.3,1.7,0.5,2.3 c0,0.1-0.1,0.2-0.2,0.2c-1,0-1.8-0.1-3-0.1H4.1c-1.4,0-1.6,0-1.8,0.1c-0.2,0.1-0.3,0.2-0.3,0.7L2,75.8z"/> <path class="st1" d="M8.4,82.2c0.9,0.6,1.4,1.5,1.4,2.4c0,2.2-1.5,3.7-4.2,3.7c-2.6,0-4.3-1.6-4.3-3.9c0-0.9,0.3-1.6,1-2.3 c0.1-0.1,0.1-0.1,0.1-0.2c0-0.1,0-0.1-0.1-0.2l-0.6-0.5c-0.1-0.1-0.2-0.2-0.2-0.4c0-0.1,0-0.2,0.2-0.2c1,0.1,2.4,0.1,3.8,0.1h6.5 c0.6,0,1.1,0,1.5-0.1c0.3-0.1,0.4-0.2,0.4-0.5l-0.1-0.6c0-0.1,0.1-0.1,0.3-0.1c0.1,0,0.2,0.1,0.2,0.2c0.1,0.6,0.4,1.6,0.7,2.3 c0,0.1-0.1,0.2-0.1,0.2c-1.3-0.1-2.5-0.1-4.2-0.1H8.4z M4.5,82.2c-0.8,0-1.1,0.1-1.5,0.3c-0.7,0.5-1.1,1.1-1.1,1.8 c0,1.3,1.4,2.4,3.7,2.4c2.1,0,3.4-1.1,3.4-2.4c0-0.8-0.3-1.3-0.9-1.8c-0.3-0.3-0.6-0.3-1.1-0.3H4.5z"/> <path class="st1" d="M3.6,98.3c-1.1,0-1.5,0.3-1.5,0.7c0,0.2,0,0.3,0.1,0.4c0,0.1,0.1,0.1,0.1,0.2c0,0.1-0.1,0.2-0.3,0.2 c0,0-0.1,0-0.1-0.1c-0.3-0.4-0.4-0.9-0.4-1.3c0-0.6,0.3-1.1,0.9-1.3c-0.7-0.8-1-1.5-1-2.6c0-1.2,0.7-2.1,1.8-2.1 c0.8,0,1.2,0.3,1.6,0.6c0.3,0.3,0.5,0.8,1,2.1c0.2,0.7,0.4,1.1,0.6,1.4c0.2,0.2,0.4,0.4,0.7,0.4h0.5c1.3,0,1.8-0.4,1.8-1.1 c0-0.6-0.2-1-0.4-1.2c-0.2-0.2-0.4-0.3-0.9-0.3c-0.4,0-0.8-0.5-0.8-1.1c0-0.3,0.1-0.5,0.5-0.5c1,0,2.1,1.5,2.1,3.2 c0,1.8-0.6,2.4-2.3,2.4L3.6,98.3z M6,97.1c-0.3-0.2-0.4-0.5-0.8-1.7c-0.4-1-0.9-1.5-1.8-1.5c-0.8,0-1.4,0.6-1.4,1.3 c0,1.1,0.7,1.8,1.5,1.8L6,97.1z"/> <path class="st1" d="M8.5,103.7c0-0.1,0-0.2,0.2-0.2c0.2,0,0.2,0,0.3,0.2c0.1,0.6,0.4,1.7,0.7,2.4c0,0.1-0.1,0.2-0.2,0.2 c-0.5,0-1,0-1.7,0c1.3,0.8,1.9,1.6,1.9,2.3c0,0.6-0.2,1-0.5,1c-0.6,0-1.1-0.5-1.1-0.9c0-0.1,0-0.3,0.2-0.5 c0.1-0.3,0.2-0.3,0.2-0.5c0-0.3-0.2-0.5-0.7-0.9c-0.5-0.4-0.9-0.5-1.5-0.5H4.2c-1.5,0-1.6,0-1.8,0.1c-0.2,0.1-0.3,0.3-0.3,1.1 c0,0.1-0.1,0.1-0.2,0.1c-0.2,0-0.2-0.1-0.2-0.1c0-0.5,0-1.2,0-1.8c0-0.5,0-1.3,0-1.8c0-0.1,0-0.2,0.2-0.2c0.1,0,0.2,0,0.2,0.2 c0.1,0.7,0.1,0.8,0.3,1c0.2,0.1,0.5,0.2,1.8,0.2h2.5c0.9,0,1.2,0,1.5-0.2c0.3-0.1,0.4-0.3,0.4-0.5L8.5,103.7z"/> <path class="st1" d="M3.6,119.3c-1.1,0-1.5,0.3-1.5,0.7c0,0.2,0,0.3,0.1,0.4c0,0.1,0.1,0.1,0.1,0.2c0,0.1-0.1,0.2-0.3,0.2 c0,0-0.1,0-0.1-0.1c-0.3-0.4-0.4-0.9-0.4-1.3c0-0.6,0.3-1.1,0.9-1.3c-0.7-0.8-1-1.5-1-2.6c0-1.2,0.7-2.1,1.8-2.1 c0.8,0,1.2,0.3,1.6,0.6c0.3,0.3,0.5,0.8,1,2.1c0.2,0.7,0.4,1.1,0.6,1.4c0.2,0.2,0.4,0.4,0.7,0.4h0.5c1.3,0,1.8-0.4,1.8-1.1 c0-0.6-0.2-1-0.4-1.2c-0.2-0.2-0.4-0.3-0.9-0.3c-0.4,0-0.8-0.5-0.8-1.1c0-0.3,0.1-0.5,0.5-0.5c1,0,2.1,1.5,2.1,3.2 c0,1.8-0.6,2.4-2.3,2.4L3.6,119.3z M6,118c-0.3-0.2-0.4-0.5-0.8-1.7c-0.4-1-0.9-1.5-1.8-1.5c-0.8,0-1.4,0.6-1.4,1.3 c0,1.1,0.7,1.8,1.5,1.8L6,118z"/> <path class="st1" d="M6.7,133.9c0.9,0,1.3-0.1,1.5-0.1c0.3-0.1,0.4-0.3,0.4-0.5l0-0.7c0-0.1,0-0.1,0.2-0.1c0.2,0,0.2,0,0.2,0.2 c0.1,0.6,0.5,1.7,0.7,2.4c0,0.1-0.1,0.2-0.2,0.2c-1.3-0.1-2.2-0.1-3.1-0.1H4.2c-1.5,0-1.7,0-1.8,0.1s-0.3,0.3-0.3,1.1 c0,0.1-0.1,0.1-0.2,0.1c-0.2,0-0.2,0-0.2-0.1c0-0.5,0-1.2,0-1.7c0-0.6,0-1.3,0-1.8c0-0.1,0-0.1,0.2-0.1c0.1,0,0.2,0,0.2,0.1 c0.1,0.7,0.1,0.9,0.3,1c0.1,0.1,0.4,0.1,1.8,0.1H6.7z M13.6,135.4c-0.6,0-1-0.5-1-1s0.4-1,1-1c0.5,0,1,0.5,1,1 S14.1,135.4,13.6,135.4z"/> <path class="st1" d="M8.5,140.5c0-0.1,0-0.2,0.3-0.2c0.1,0,0.2,0,0.2,0.2c0.1,0.6,0.4,1.6,0.7,2.3c0,0.1-0.1,0.2-0.2,0.2 c-0.5,0-1,0-1.4,0c1.1,0.7,1.7,1.7,1.7,2.7c0,1.4-0.9,2.5-2.5,2.5c-0.6,0-1.5,0-2,0H4.2c-1.5,0-1.7,0-1.8,0.1 c-0.2,0.1-0.3,0.3-0.3,1c0,0.1-0.1,0.2-0.2,0.2c-0.2,0-0.2,0-0.2-0.2c0-0.5,0-1.1,0-1.7c0-0.6,0-1.2,0-1.8c0-0.1,0-0.2,0.2-0.2 c0.1,0,0.2,0,0.2,0.2c0,0.6,0.1,0.8,0.3,0.9c0.2,0.1,0.3,0.2,1.8,0.2h2.7c0.5,0,0.7-0.1,1-0.2c0.6-0.3,0.9-0.8,0.9-1.5 c0-0.7-0.3-1.3-1-1.8c-0.4-0.3-0.7-0.4-1.4-0.4H4.2c-1.5,0-1.7,0-1.8,0.1c-0.2,0.1-0.3,0.3-0.3,1c0,0.1-0.1,0.1-0.2,0.1 c-0.2,0-0.2,0-0.2-0.1c0-0.5,0-1.1,0-1.7c0-0.6,0-1.3,0-1.8c0-0.1,0-0.1,0.2-0.1c0.1,0,0.2,0,0.2,0.1c0.1,0.6,0.1,0.8,0.3,0.9 c0.2,0.1,0.4,0.2,1.8,0.2h2.5c0.9,0,1.2,0,1.5-0.1c0.3-0.1,0.4-0.3,0.4-0.5L8.5,140.5z"/> <path class="st1" d="M8.5,152.9c0-0.1,0-0.2,0.3-0.2c0.1,0,0.2,0,0.2,0.2c0.1,0.6,0.4,1.6,0.7,2.3c0,0.1-0.1,0.2-0.2,0.2 c-0.5,0-1,0-1.4,0c1.1,0.7,1.7,1.7,1.7,2.7c0,1.4-0.9,2.5-2.5,2.5c-0.6,0-1.5,0-2,0H4.2c-1.5,0-1.7,0-1.8,0.1 c-0.2,0.1-0.3,0.3-0.3,1c0,0.1-0.1,0.2-0.2,0.2c-0.2,0-0.2,0-0.2-0.2c0-0.5,0-1.1,0-1.7c0-0.6,0-1.2,0-1.8c0-0.1,0-0.2,0.2-0.2 c0.1,0,0.2,0,0.2,0.2c0,0.6,0.1,0.8,0.3,0.9c0.2,0.1,0.3,0.2,1.8,0.2h2.7c0.5,0,0.7-0.1,1-0.2c0.6-0.3,0.9-0.8,0.9-1.5 c0-0.7-0.3-1.3-1-1.8c-0.4-0.3-0.7-0.4-1.4-0.4H4.2c-1.5,0-1.7,0-1.8,0.1c-0.2,0.1-0.3,0.3-0.3,1c0,0.1-0.1,0.1-0.2,0.1 c-0.2,0-0.2,0-0.2-0.1c0-0.5,0-1.1,0-1.7c0-0.6,0-1.3,0-1.8c0-0.1,0-0.1,0.2-0.1c0.1,0,0.2,0,0.2,0.1c0.1,0.6,0.1,0.8,0.3,0.9 c0.2,0.1,0.4,0.2,1.8,0.2h2.5c0.9,0,1.2,0,1.5-0.1c0.3-0.1,0.4-0.3,0.4-0.5L8.5,152.9z"/> </g> </g> <g> <path class="st1" d="M171,49.8c0,0,0.4-0.1,1-0.6c0.7-0.5,1.4-1.5,1.5-2.2c0-0.5-3.5-4.4-3.9-4.8c-0.7-0.6-1.1-0.8-1.4-0.8l-0.1,0 c-0.2,0-0.9,0-1.7,0.9l-2.2,2.2h-50l0.5-0.6c5.1-6.5,8.6-12.1,10.2-16l0.1-0.2l0.2,0c3.1-0.7,4.4-1.5,4.7-1.9c0-0.1,0.1-0.2,0-0.3 c0-0.3-0.3-0.5-0.7-0.8c-2.5-1.6-4.5-2.7-6.5-3.8l-1.3-0.7h-2.2v0.4c0,1.4,0,2.8-0.1,3.8c-0.5,6.3-3.5,14.3-6.2,19.8l-0.1,0.2 H90.5c0,0,0-0.1,0-0.1c-0.1-0.6-0.2-0.9-0.5-1.1c-2.7-1.3-4-1.8-5.3-2.2l-1-0.4c0,0-0.1,0-0.1,0c-0.1,0-0.2,0-0.3,0.1 c-0.1,0.1-0.2,0.2-0.1,0.4c0.3,2.1,0.5,4.1,0.7,6.5C84,53.4,84,63.4,84,70.7c0,8.2-0.1,23.2-0.4,29.2c-0.4,8.3-0.6,14-0.6,17.9 c0,1.3,0.9,3.3,2.2,3.3c1.5,0,4.9-3.5,4.9-5.4c0-5.4,0-11.2-0.1-17.1l0-0.4c0-6.1-0.1-12.3-0.1-18.2c0-8.8,0-17.9,0.1-26.6 c0-2,0-3.7,0.1-5.6l0-0.3h20.3v27.6c0,7.7-0.1,14.2-0.4,19.3l0,0.5l0,0.3c-0.2,5.3-0.6,13.3-0.6,14.6c0,1.5,1,3,2.5,3 c2,0,5.1-3.4,5.1-5.6c0-1.5-0.1-8-0.3-12.6c-0.1-5.5-0.3-13.5-0.3-19.7V47.5h20.9v28.4c0,7.7-0.1,14.2-0.4,19.3l0,0.5l0,0.3 c-0.2,5.3-0.6,13.3-0.6,14.6c0,1.5,1,3,2.5,3c2,0,5.1-3.4,5.1-5.6c0-1.5-0.1-8-0.3-12.6c-0.1-5.5-0.3-13.4-0.3-19.7V47.5h21.6 v58.4c0,4.8-2.3,5.3-3.9,5.8l-0.4,0.1c-0.7,0.2-1.3,0.3-2,0.3c-1.4,0-2.9-0.3-5.2-0.8l-1.1-0.2l-1.5-0.3c0,0-0.1,0-0.1,0 c-0.1,0-0.3,0.1-0.4,0.2c-0.1,0.2-0.1,0.3,0,0.5c2.2,2.5,2.8,3,5,4.6l1.2,0.9c0.6,0.4,1.3,0.9,2.2,1.5c0.9,0.6,2,1.3,3.3,2.2 c0.1,0.1,0.2,0.1,0.2,0.1c0.1,0,0.1,0,0.2-0.1c4.7-2.9,8.6-5.8,8.6-12.1c0-3.5-0.1-11.8-0.3-18.5c-0.1-9.5-0.1-27.7-0.1-38.5V49.8 L171,49.8z"/> <path class="st1" d="M152.2,255.9l-0.3-0.3c-0.7-0.6-1.1-0.8-1.6-0.8c-0.6,0-0.9,0.3-1.3,0.7l-3.5,3H99.1c-4.1,0-7.9,0-12.4-0.9 c-0.1,0-0.1,0-0.2,0.1c0,0.1-0.1,0.1,0,0.2c1.6,4.2,5,5.9,6.9,6.5c0.1,0,0.1,0,0.2,0c2.2-1.9,6.6-1.9,8.7-1.9h44.6 c-4.4,13.6-13,29.1-23.1,41.7c-0.5,0.7-1.2,2-1.2,2.6c0,1.4,0.9,2.3,2.4,2.3c4.7,0,6.9-2.1,8.3-4c7.5-9.9,14.9-23.7,20.9-38.9 c1.5-0.9,4.2-2.8,4.2-4.2c0-0.6-0.5-1.2-0.8-1.5C155.6,258.7,154,257.4,152.2,255.9z"/> <path class="st1" d="M108.2,243.6c0.1,0,0.2,0,0.2-0.1c2.4-1.8,6.5-1.8,8.8-1.8h30.7c0.2,0,0.3,0,0.4-0.1c0.2-0.1,0.3-0.2,0.3-0.4 c0-0.1-0.2-0.3-0.4-0.4c-0.1,0-0.1-0.1-0.1-0.1c-0.9-0.9-2-1.7-3.2-2.6c-0.8-0.6-1.7-1.3-2.7-2.1c-0.7-0.5-1-0.7-1.2-0.7 c-0.3,0-0.7,0.2-0.9,0.4l-4,3.2H114c-3.7,0-7.1,0-11-0.6c0,0,0,0-0.1,0c-0.1,0-0.3,0.1-0.3,0.2c-0.1,0.1-0.1,0.3,0,0.4 c1.5,2.7,3.8,4,5.5,4.7C108.1,243.6,108.1,243.6,108.2,243.6z"/> <path class="st1" d="M77.9,22.3c0,0,0.1,0,0.1,0c0.1,0,0.2,0,0.2-0.1c2.4-1.8,6.5-1.8,8.8-1.8h94.5c0.2,0,0.3,0,0.4-0.1 c0.2-0.1,0.3-0.2,0.3-0.4c0-0.1-0.2-0.3-0.4-0.4c-0.1,0-0.1-0.1-0.1-0.1c-0.9-0.9-2-1.7-3.2-2.6c-0.8-0.6-1.7-1.3-2.7-2.1 c-0.7-0.5-1-0.7-1.2-0.7c-0.3,0-0.7,0.2-0.9,0.4l-4,3.2h-86c-3.7,0-7.1,0-11-0.6c0,0,0,0-0.1,0c-0.1,0-0.3,0.1-0.3,0.2 c-0.1,0.1-0.1,0.3,0,0.4C73.9,20.3,76.2,21.6,77.9,22.3z"/> <path class="st1" d="M188.9,244.6c-24.1-5.5-39.5-21.9-53.3-38.1c-2.7-3.3-4.3-5.1-6.5-7.6c-0.9-1-1.3-1.3-2-1.8l-0.7-0.5l0.9-0.2 c2.2-0.4,4.5-1.4,4.5-2.4c0-0.1-0.1-0.5-0.8-0.8c-3.3-1.5-7.4-3-10.9-4.2c0,0-0.1,0-0.1,0c-0.1,0-0.2,0-0.2,0.1 c-0.1,0.1-0.2,0.2-0.2,0.3c-0.3,3.5-2,7.4-4.6,12.2c-8.5,16.2-25.9,37.9-49.4,50.3c-0.1,0.1-0.2,0.1-0.2,0.3c0,0.1,0,0.2,0,0.3 c0.1,0.1,0.3,0.3,0.4,0.3c0,0,0.1,0,0.1,0c23.6-8.5,44.3-27.4,59.8-54.8l0.2-0.4l0.3,0.3c0.8,0.7,1.3,1.2,1.8,1.8 c1.3,1.8,2.1,3,4.3,6.4c13.9,20.8,25.1,33.5,37.4,42.3c1.6,1.2,4.4,2.8,5.3,2.8c0.9,0,1.3-0.4,2.1-1.3c0.8-0.9,1.7-1.7,3.7-1.7 c4.3,0,7.1-0.9,8.5-2.8c0.1-0.1,0.1-0.3,0.1-0.4C189.2,244.7,189.1,244.6,188.9,244.6z"/> </g></g></svg>