<?xml version="1.0" encoding="utf-8"?>
<!-- Generator: Adobe Illustrator 26.0.1, SVG Export Plug-In . SVG Version: 6.00 Build 0)  -->
<svg version="1.1" id="レイヤー_1" xmlns="http://www.w3.org/2000/svg" xmlns:xlink="http://www.w3.org/1999/xlink" x="0px"
	 y="0px" viewBox="0 0 400 800" style="enable-background:new 0 0 400 800;" xml:space="preserve">
<style type="text/css">
	.st0{fill:#4D4D4D;}
</style>
<g>
	<path class="st0" d="M144.41,91.97c5,2.71,7.75,5.05,8.27,7.03c0.52,1.98-0.78,4.53-3.9,7.65c-2.29,2.71-4.01,9.84-5.15,21.39
		c-1.15,11.55-1.51,28.06-1.09,49.49c0.2,14.16,0.26,25.92,0.16,35.29c-0.11,9.37-0.37,17.17-0.78,23.42
		c-0.42,6.25-1.15,11.4-2.19,15.46c-1.04,4.06-2.29,7.76-3.75,11.09c-1.67,3.75-3.23,5.67-4.68,5.78c-1.46,0.11-3.12-1.72-5-5.46
		c-2.92-6.25-3.96-13.53-3.12-21.86c-6.67,0.62-12.86,1.2-18.58,1.72c-5.73,0.52-11.5,1.2-17.33,2.03
		c-1.87,10.2-4.22,16.29-7.03,18.27c-2.81,1.98-5.15,1.41-7.03-1.72c-2.92-5.62-4.58-10.88-5-15.77c-0.42-4.89,0.1-9.21,1.56-12.96
		c1.87-5.41,3.38-14.47,4.53-27.17c1.14-12.7,1.72-29.67,1.72-50.9c0-25.19-2.71-42.05-8.12-50.59c-2.5-3.95-2.19-6.61,0.94-7.96
		c3.12-1.35,8.95,0.26,17.49,4.84c7.07-0.83,13.79-2.44,20.14-4.84c6.35-2.39,11.6-4.94,15.77-7.65c2.29-1.87,4.94-2.7,7.96-2.5
		C133.22,86.25,137.96,88.22,144.41,91.97z M124.43,230.93c1.04-8.32,1.77-17.22,2.19-26.7c0.41-9.47,0.62-20.45,0.62-32.94
		c-6.67,1.67-13.27,2.86-19.83,3.59c-6.56,0.73-12.23,1.09-17.02,1.09c-0.42,9.16-0.73,18.58-0.94,28.26
		c-0.21,9.68-0.62,19.73-1.25,30.13c5.83-1.45,12.33-2.55,19.52-3.28C114.9,230.36,120.47,230.31,124.43,230.93z M90.7,168.48
		c4.37-1.66,8.17-2.97,11.4-3.9c3.23-0.94,6.19-1.56,8.9-1.87c2.7-0.31,5.36-0.31,7.96,0c2.6,0.31,5.36,0.89,8.28,1.72
		c0-7.91,0-16.29,0-25.14c0-8.85-0.21-17.22-0.62-25.14c0-4.58-0.99-7.54-2.97-8.9c-1.98-1.35-5.26-1.51-9.84-0.47
		c-4.37,1.04-8.54,2.03-12.49,2.97c-3.96,0.94-7.81,1.82-11.55,2.65c0.41,7.29,0.67,15.93,0.78,25.92
		C90.65,146.31,90.7,157.03,90.7,168.48z M254.64,180.34c6.04-1.04,11.6-2.03,16.71-2.97c5.1-0.94,9.73-1.82,13.89-2.65
		c4.16-0.83,7.75-1.51,10.77-2.03c3.02-0.52,5.83-0.67,8.43-0.47c2.6,0.21,5.2,0.78,7.81,1.72c2.6,0.94,5.57,2.34,8.9,4.22
		c6.66,3.54,9.21,6.56,7.65,9.06c-1.56,2.5-7.96,3.54-19.21,3.12c-8.54-0.42-17.02-0.52-25.45-0.31
		c-8.43,0.21-18.27,0.83-29.51,1.87c0.21,5.42,0.41,10.88,0.62,16.39c0.21,5.52,0.47,10.67,0.78,15.46
		c0.31,4.79,0.57,9.01,0.78,12.65c0.21,3.64,0.52,6.2,0.94,7.65c0.62,8.54,1.04,15.61,1.25,21.23c0.21,5.62,0,10.62-0.62,14.99
		c-0.62,4.37-1.83,8.48-3.59,12.33c-1.77,3.85-4.21,8.28-7.34,13.27c-2.92,4.37-5.62,6.56-8.12,6.56s-4.68-1.56-6.56-4.68
		c-1.67-2.71-3.38-5.26-5.15-7.65c-1.77-2.4-3.85-4.74-6.24-7.03c-2.4-2.29-5.21-4.68-8.43-7.18c-3.23-2.5-7.13-5.21-11.71-8.12
		c-3.33-2.29-4.68-4.22-4.06-5.78c0.62-1.56,2.7-1.72,6.25-0.47c7.5,1.87,13.48,3.18,17.96,3.9c4.47,0.73,7.91,0.94,10.3,0.62
		c2.39-0.31,4.01-1.14,4.84-2.5c0.83-1.35,1.45-3.07,1.87-5.15c0.83-9.57,1.25-20.19,1.25-31.85c0-11.66-0.42-25.92-1.25-42.78
		c-11.04,1.25-19.94,2.34-26.7,3.28c-6.77,0.94-12.33,1.77-16.71,2.5c-4.37,0.73-7.91,1.36-10.62,1.87
		c-2.71,0.52-5.52,1.09-8.43,1.72c-6.04,1.67-11.09,2.14-15.15,1.41c-4.06-0.73-8.38-2.65-12.96-5.78c-2.92-2.08-4.22-3.69-3.9-4.84
		c0.31-1.14,2.03-1.72,5.15-1.72c3.95,0,9.1-0.26,15.46-0.78c6.35-0.52,13.43-1.2,21.23-2.03c7.81-0.83,16.13-1.82,24.98-2.97
		c8.85-1.14,17.85-2.34,27.01-3.59c-0.42-9.57-1.25-16.76-2.5-21.55c-1.25-4.79-3.02-8.74-5.31-11.87c-1.46,0-3.64,0.16-6.56,0.47
		c-2.92,0.31-5.99,0.68-9.21,1.09c-3.23,0.42-6.3,0.83-9.21,1.25c-2.92,0.42-5.21,0.73-6.87,0.94c-2.92,0.42-5.26,0.73-7.03,0.94
		c-1.77,0.21-3.39,0.21-4.84,0c-1.46-0.21-2.92-0.57-4.37-1.09c-1.46-0.52-3.23-1.41-5.31-2.65c-3.75-2.08-5.46-3.54-5.15-4.37
		c0.31-0.83,2.76-1.45,7.34-1.87c9.16-0.62,17.02-1.25,23.58-1.87s12.33-1.45,17.33-2.5l0.62-28.1c-8.33,0.62-15.25,1.09-20.77,1.41
		c-5.52,0.31-10.15,0.47-13.9,0.47s-6.92-0.16-9.52-0.47c-2.61-0.31-5.15-0.78-7.65-1.41c-5-1.45-7.45-2.91-7.34-4.37
		c0.1-1.45,2.55-2.39,7.34-2.81c4.37-0.21,8.48-0.47,12.33-0.78c3.85-0.31,7.81-0.67,11.87-1.09c4.06-0.41,8.38-0.94,12.96-1.56
		c4.58-0.62,9.57-1.25,14.99-1.87c0.21-12.91-0.31-22.69-1.56-29.35c-1.25-6.66-3.64-11.97-7.18-15.93
		c-2.71-3.12-3.02-5.51-0.94-7.18c2.08-1.66,5.93-1.56,11.55,0.31c6.25,2.08,11.13,3.96,14.68,5.62c3.54,1.67,5.98,3.33,7.34,5
		c1.35,1.67,1.82,3.39,1.4,5.15c-0.42,1.77-1.36,3.7-2.81,5.78c-1.04,1.67-2.03,4.37-2.96,8.12c-0.94,3.75-1.93,10.2-2.97,19.36
		c5.2-0.83,9.68-1.61,13.43-2.34c3.75-0.73,8.53-1.72,14.36-2.97c3.33-0.83,6.09-1.41,8.28-1.72c2.19-0.31,4.16-0.47,5.93-0.47
		c1.77,0,3.43,0.31,5,0.94c1.56,0.62,3.48,1.46,5.78,2.5c4.16,2.08,6.14,4.17,5.93,6.25c-0.21,2.08-4.06,3.75-11.55,5
		c-4.17,0.62-7.86,1.2-11.09,1.72c-3.23,0.52-6.61,1.04-10.15,1.56c-3.54,0.52-7.45,1.09-11.71,1.72
		c-4.27,0.62-9.42,1.36-15.46,2.19l-0.94,26.54c2.91-0.42,6.61-0.99,11.08-1.72c4.47-0.73,8.48-1.51,12.02-2.34
		c6.04-1.45,10.46-2.03,13.27-1.72c2.81,0.31,5.98,1.62,9.52,3.9c4.16,2.5,5.98,4.84,5.46,7.03c-0.52,2.19-4.21,3.28-11.09,3.28
		c-5,0-10.3,0.21-15.93,0.62c-5.62,0.42-11.45,1.04-17.49,1.87c8.12,2.08,13.06,4.22,14.83,6.4c1.77,2.19,1.92,4.84,0.47,7.96
		c-0.83,2.5-1.46,5.1-1.87,7.81C254.85,172.75,254.64,176.18,254.64,180.34z M204.99,241.23c-1.46,5.62-3.86,8.9-7.18,9.84
		c-3.33,0.94-6.04-0.57-8.12-4.53c-2.71-5.83-5-10.82-6.87-14.99c-1.87-4.16-3.85-9.26-5.93-15.3c-0.83-2.29-0.62-3.85,0.62-4.68
		c1.25-0.83,3.23-0.62,5.93,0.62c9.16,5.42,15.3,10.15,18.42,14.21C204.99,230.46,206.03,235.41,204.99,241.23z"/>
	<path class="st0" d="M332.71,500.6c4.16,1.25,6.29,2.76,6.4,4.53c0.1,1.77-2.45,2.86-7.65,3.28c-13.95,1.04-24.88,1.67-32.79,1.87
		c-7.91,0.21-14.21-0.26-18.89-1.41c-4.68-1.14-8.38-3.02-11.08-5.62c-2.71-2.6-5.93-6.29-9.68-11.08
		c-13.12-17.28-25.09-32.99-35.91-47.15c-10.83-14.15-20.2-26.64-28.1-37.47c-8.54,14.57-17.54,28.37-27.01,41.38
		c-9.48,13.01-19.41,24.93-29.82,35.75c-10.41,10.83-21.13,20.2-32.16,28.1c-11.04,7.91-22.28,13.95-33.73,18.11
		c-4.58,1.67-7.13,1.87-7.65,0.62c-0.52-1.25,1.3-3.23,5.46-5.93c21.44-14.36,40.13-30.96,56.05-49.81
		c15.93-18.84,30.86-40.33,44.81-64.48c4.16-7.28,7.08-14.26,8.74-20.92c1.66-6.66,2.08-11.76,1.25-15.3
		c-1.04-4.79-0.62-7.5,1.25-8.12c1.87-0.62,6.35,1.46,13.43,6.25c7.49,5,11.71,8.85,12.65,11.55c0.94,2.71-0.05,5.21-2.97,7.5
		c-1.25,1.04-2.24,2.03-2.97,2.97c-0.73,0.94-1.83,2.55-3.28,4.84c11.24,12.29,21.23,22.95,29.98,32.01
		c8.74,9.06,16.71,16.86,23.89,23.42c7.18,6.56,13.84,12.08,19.98,16.55c6.14,4.48,12.28,8.38,18.42,11.71
		c6.14,3.33,12.54,6.3,19.21,8.9C317.2,495.24,324.59,497.89,332.71,500.6z M236.53,560.55c-2.71,7.29-5.36,13.79-7.96,19.52
		c-2.61,5.73-5.31,10.77-8.12,15.14c-2.81,4.37-5.73,8.28-8.74,11.71c-3.02,3.44-6.4,6.5-10.15,9.21
		c-6.87,5.41-11.14,7.44-12.8,6.09c-1.67-1.36-0.11-5.05,4.68-11.09c7.28-9.16,13.48-20.14,18.58-32.94
		c5.1-12.8,9.21-25.97,12.34-39.5c0.83-3.12,0.67-5.1-0.47-5.93c-1.15-0.83-3.39-1.14-6.71-0.94c-6.24,0.42-14.57,1.83-24.98,4.22
		c-10.41,2.4-21.23,5.46-32.48,9.21c-5.42,1.87-10.36,2.5-14.83,1.87c-4.48-0.62-9.73-2.91-15.77-6.87
		c-2.92-1.87-4.06-3.48-3.44-4.84c0.62-1.35,2.39-1.92,5.31-1.72c3.54,0.21,8.07,0.11,13.58-0.31c5.51-0.41,11.34-1.04,17.49-1.87
		c6.14-0.83,12.44-1.82,18.89-2.97c6.45-1.14,12.44-2.34,17.96-3.59c5.51-1.25,10.2-2.44,14.05-3.59c3.85-1.14,6.4-2.03,7.65-2.65
		c3.12-1.87,6.35-2.7,9.68-2.5c3.33,0.21,8.01,2.29,14.05,6.25c6.66,4.17,10.15,7.34,10.46,9.52c0.31,2.19-1.2,4.43-4.53,6.71
		C245.69,541.82,241.11,549.1,236.53,560.55z M189.07,493.73c-5,1.04-9.27,1.72-12.8,2.03c-3.54,0.31-6.56,0.42-9.06,0.31
		c-2.5-0.1-4.58-0.42-6.25-0.94c-1.67-0.52-3.23-1.2-4.68-2.03c-3.33-1.87-4.79-3.48-4.37-4.84c0.42-1.35,2.81-2.13,7.18-2.34
		c3.75-0.2,8.28-0.88,13.58-2.03c5.31-1.14,12.33-2.97,21.08-5.46c6.04-1.66,10.51-2.7,13.43-3.12c2.91-0.41,6.04-0.1,9.37,0.94
		c5,1.46,7.7,3.54,8.12,6.25c0.42,2.71-1.87,4.58-6.87,5.62c-5.62,1.25-10.51,2.24-14.68,2.97
		C198.95,491.8,194.27,492.69,189.07,493.73z"/>
</g>
<g>
	<path class="st0" d="M113.25,790.26c1.65-1.43,2.85-3.15,3.59-5.15c0.74-2,1.11-4.52,1.11-7.56v-17.34c0-1.17,0.01-2.11,0.03-2.8
		c0.02-0.69-0.08-1.24-0.29-1.63c-0.22-0.39-0.61-0.68-1.17-0.88c-0.56-0.2-1.43-0.36-2.61-0.49v-1.24
		c3.26-0.91,5.56-2.43,6.91-4.56h0.98v28.56c0,2.61-0.68,5.16-2.05,7.66c-1.37,2.5-3.36,4.55-5.97,6.16L113.25,790.26z
		 M118.92,735.37c1.74,0,2.61,0.91,2.61,2.74c0,0.87-0.27,1.55-0.81,2.05c-0.54,0.5-1.23,0.75-2.05,0.75
		c-0.87,0.09-1.52-0.18-1.96-0.82c-0.44-0.63-0.65-1.31-0.65-2.05c0-0.74,0.25-1.39,0.75-1.96
		C117.3,735.52,118.01,735.28,118.92,735.37z"/>
	<path class="st0" d="M150.48,775.2c-0.7-0.09-1.63-0.15-2.8-0.2c-1.17-0.04-2.63-0.07-4.37-0.07c-1.74,0-3.19,0.02-4.37,0.07
		c-1.17,0.04-2.11,0.11-2.8,0.2v-1.04l3.65-0.72c1.35-0.26,2.02-1.04,2.02-2.35v-13.1c0-1.04-0.26-1.8-0.78-2.28
		c-0.52-0.48-1.56-0.89-3.13-1.24v-0.91c3.09-0.78,5.35-2.35,6.78-4.69h1.04v22.43c0,0.65,0.1,1.13,0.29,1.43
		c0.2,0.3,0.58,0.52,1.14,0.65l3.32,0.78V775.2z M143.3,735.43c0.74,0,1.41,0.28,2.02,0.85c0.61,0.57,0.91,1.22,0.91,1.96
		c0,0.7-0.32,1.31-0.95,1.86c-0.63,0.54-1.34,0.82-2.12,0.82c-0.74,0-1.37-0.26-1.89-0.78c-0.52-0.52-0.78-1.15-0.78-1.89
		s0.28-1.39,0.85-1.96C141.91,735.72,142.56,735.43,143.3,735.43z"/>
	<path class="st0" d="M188.49,771.81c-1.13,1.43-2.57,2.49-4.3,3.16c-1.74,0.67-3.43,1.01-5.09,1.01c-2.04,0-3.88-0.36-5.51-1.08
		s-3.02-1.68-4.17-2.9c-1.15-1.22-2.03-2.62-2.64-4.21c-0.61-1.59-0.91-3.27-0.91-5.05c0-2.04,0.3-3.91,0.91-5.61
		c0.61-1.69,1.51-3.15,2.71-4.37c1.19-1.22,2.67-2.16,4.43-2.84c1.76-0.67,3.79-1.01,6.1-1.01c2.39,0,4.34,0.36,5.83,1.08
		s2.25,1.64,2.25,2.77c0,0.61-0.2,1.14-0.59,1.6s-0.83,0.71-1.3,0.75c-0.61,0.04-1.15-0.17-1.63-0.65c-0.48-0.48-1.01-1.02-1.6-1.63
		c-0.59-0.61-1.28-1.17-2.09-1.7c-0.8-0.52-1.84-0.78-3.1-0.78c-1.35,0-2.5,0.34-3.46,1.01c-0.96,0.67-1.75,1.56-2.38,2.67
		c-0.63,1.11-1.09,2.36-1.37,3.75c-0.28,1.39-0.42,2.78-0.42,4.17c0,1.56,0.25,3.04,0.75,4.43c0.5,1.39,1.21,2.61,2.12,3.65
		c0.91,1.04,2.01,1.88,3.29,2.51c1.28,0.63,2.71,0.95,4.27,0.95c1.74-0.04,3.11-0.35,4.11-0.91c1-0.56,1.98-1.37,2.93-2.41
		L188.49,771.81z"/>
	<path class="st0" d="M215.48,775.98c-1.91,0-3.69-0.34-5.35-1.01c-1.65-0.67-3.09-1.61-4.3-2.8c-1.22-1.2-2.18-2.62-2.9-4.27
		c-0.72-1.65-1.08-3.46-1.08-5.41c0-2,0.36-3.82,1.08-5.48c0.72-1.65,1.71-3.07,2.97-4.27c1.26-1.2,2.75-2.13,4.47-2.8
		c1.72-0.67,3.6-1.01,5.64-1.01c2.09,0,3.98,0.36,5.67,1.08s3.16,1.7,4.4,2.93c1.24,1.24,2.19,2.7,2.87,4.37
		c0.67,1.67,1.01,3.45,1.01,5.31c0,1.87-0.36,3.62-1.08,5.25c-0.72,1.63-1.72,3.04-3,4.24c-1.28,1.2-2.81,2.14-4.6,2.84
		C219.5,775.64,217.56,775.98,215.48,775.98z M206.54,763.01c0,3.69,0.85,6.57,2.54,8.64s3.91,3.1,6.65,3.1
		c1.35,0,2.61-0.29,3.78-0.88s2.18-1.41,3.03-2.48c0.85-1.06,1.51-2.35,1.99-3.85c0.48-1.5,0.72-3.16,0.72-4.99
		c0-1.83-0.22-3.5-0.65-5.02c-0.43-1.52-1.07-2.83-1.89-3.91c-0.83-1.09-1.83-1.93-3-2.54s-2.48-0.91-3.91-0.91
		c-2.87,0-5.13,1.09-6.78,3.26C207.37,755.6,206.54,758.79,206.54,763.01z"/>
	<path class="st0" d="M275.13,775.14c-4.52-0.26-9.04-0.26-13.56,0v-1.04l3.59-0.52c0.96-0.13,1.43-0.98,1.43-2.54v-11.02
		c0-2.43-0.41-4.39-1.24-5.87c-0.83-1.48-2.43-2.22-4.82-2.22c-2.78,0-5.5,1.33-8.15,3.98v15.84c0,0.7,0.52,1.17,1.56,1.43
		l3.85,0.91v1.04c-0.61-0.04-1.33-0.09-2.15-0.13c-0.83-0.04-1.74-0.07-2.74-0.07h-2.15c-3.09,0-5.43,0.07-7.04,0.2v-1.04l3.46-0.65
		c0.87-0.13,1.3-0.78,1.3-1.96v-12.91c0-1.35-0.27-2.26-0.81-2.74c-0.54-0.48-1.51-0.83-2.9-1.04v-1.17
		c2.78-0.65,4.98-2.61,6.58-5.87h1.04v5.87c1.65-1.43,3.48-2.58,5.48-3.42c2-0.85,3.76-1.27,5.28-1.27c5,0,7.5,2.98,7.5,8.93v12.97
		c0,0.83,0.11,1.46,0.33,1.89c0.22,0.44,0.65,0.72,1.3,0.85l2.87,0.52V775.14z"/>
</g>
</svg>
