<?xml version="1.0" encoding="utf-8"?>
<!-- Generator: Adobe Illustrator 25.2.1, SVG Export Plug-In . SVG Version: 6.00 Build 0)  -->
<svg version="1.1" id="レイヤー_1" xmlns="http://www.w3.org/2000/svg" xmlns:xlink="http://www.w3.org/1999/xlink" x="0px"
	 y="0px" viewBox="0 0 20 340" style="enable-background:new 0 0 20 340;" xml:space="preserve">
<g>
	<g>
		<path d="M17.4,5c-0.1,0.1-0.3,0.2-0.6,0.2c-0.4,0.5-1.1,1.2-1.6,1.6L15,6.7c0.2-0.4,0.4-1.2,0.5-1.7h-4.9v3.7
			c0,0.1-0.4,0.3-1.1,0.3H9.3v-4H4.7c0.1,1-0.3,1.7-0.8,2c-0.4,0.3-1,0.2-1.2-0.2C2.6,6.4,2.8,6,3.2,5.8c0.6-0.3,1.1-1.1,1-2l0.2,0
			C4.5,4,4.6,4.3,4.6,4.5h4.6V3.2H4.3L4.2,2.7h9.6l0.8-1c0,0,0.9,0.7,1.5,1.2c0,0.2-0.2,0.3-0.4,0.3h-5.1v1.3h4.9l0.7-0.8L17.4,5z
			 M7.7,7.1c0,0,0.7,0.5,1.1,0.9c0,0.2-0.2,0.3-0.4,0.3H4.8L4.7,7.8h2.5L7.7,7.1z M16.6,14.9c0.5,0.2,0.6,0.3,0.6,0.5
			c0,0.5-0.5,0.8-2,0.8h-3.9c-1.6,0-2-0.3-2-1.7v-0.7H6.1v0.8c0,0.1-0.5,0.4-1.1,0.4H4.8v-6l1.4,0.6h7.5l0.6-0.7l1.4,1.1
			c-0.1,0.1-0.3,0.3-0.6,0.3v3.9c0,0.1-0.6,0.4-1.1,0.4h-0.2v-0.7h-3.3v0.8c0,0.5,0.1,0.6,0.7,0.6h4c0.4,0,0.6,0,0.7-0.2
			c0.1-0.2,0.3-0.7,0.5-1.5h0.2L16.6,14.9z M7.7,5.5c0,0,0.7,0.5,1.1,0.9c0,0.2-0.2,0.2-0.4,0.2H5.1L5,6.2h2.2L7.7,5.5z M6.1,10v1.4
			h3.2V10H6.1z M9.3,13.3v-1.5H6.1v1.5H9.3z M10.5,10v1.4h3.3V10H10.5z M13.9,13.3v-1.5h-3.3v1.5H13.9z M11.1,7.8h2.5l0.6-0.7
			c0,0,0.7,0.5,1.2,0.9c0,0.2-0.2,0.3-0.4,0.3h-3.8L11.1,7.8z M13.9,5.5c0,0,0.7,0.5,1.1,0.9c0,0.2-0.2,0.2-0.4,0.2h-3.4l-0.1-0.5
			h2.2L13.9,5.5z"/>
		<path d="M7.9,24.8c0,0,0.8,0.7,1.3,1.1c0,0.2-0.2,0.3-0.4,0.3H2.7l-0.1-0.5h4.6L7.9,24.8z M6.4,27.7l0.7-0.8c0,0,0.8,0.6,1.2,1.1
			c0,0.2-0.2,0.3-0.4,0.3H3.4l-0.1-0.5H6.4z M3.4,30.2l-0.1-0.5h3L7,28.9c0,0,0.8,0.6,1.3,1.1c0,0.2-0.2,0.3-0.4,0.3H3.4z M3.5,24.1
			l-0.1-0.4h3l0.7-0.9c0,0,0.8,0.7,1.3,1.2c0,0.2-0.2,0.2-0.4,0.2H3.5z M7.3,31.1l1.4,1c-0.1,0.1-0.4,0.3-0.7,0.3v4.2
			C8,36.7,7.5,37,7,37H6.8v-0.9H4.5v0.8c0,0.1-0.5,0.4-1,0.4H3.4v-6.1l1.2,0.6h2.1L7.3,31.1z M6.8,35.6v-3.4H4.5v3.4H6.8z M16,26.5
			c0,0,0.9,0.7,1.4,1.3c0,0.2-0.2,0.3-0.4,0.3h-3.5v3h1.3l0.7-0.7l1.4,1.1c-0.1,0.1-0.4,0.3-0.7,0.3v4.9c0,0.1-0.6,0.4-1.1,0.4H15
			v-1h-4.1v0.8c0,0.1-0.5,0.4-1,0.4H9.7v-6.8l1.3,0.6h1.3v-3H8.9l-0.1-0.5h3.5v-2.9c-1,0.2-2,0.3-3.1,0.4l0-0.3
			c2.2-0.4,4.7-1.4,6-2.2l1.4,1.2c-0.1,0.1-0.4,0.1-0.8,0c-0.6,0.2-1.4,0.4-2.2,0.6v3.2h1.6L16,26.5z M10.9,31.6v4.1H15v-4.1H10.9z"
			/>
	</g>
	<g>
		<path d="M14.1,74.2c0,4.9-2,6.6-4.1,6.6c-2.1,0-4.1-1.7-4.1-6.6c0-4.8,2-6.6,4.1-6.6C12,67.6,14.1,69.4,14.1,74.2z M10,80.1
			c1.2,0,2.3-1.2,2.3-5.9c0-4.6-1.1-5.9-2.3-5.9c-1.3,0-2.4,1.2-2.4,5.9C7.6,78.9,8.7,80.1,10,80.1z"/>
		<path d="M14.1,102.5v1.5H6v-1.2c1.1-1.1,2.1-2.2,3-3.1c2-2.1,2.8-3.6,2.8-5.2c0-1.6-0.9-2.7-2.4-2.7c-0.3,0-0.7,0-1.1,0.1
			l-0.4,1.4c-0.2,0.9-0.6,1.2-1.1,1.2c-0.4,0-0.8-0.2-1-0.6c0.3-2,2-3,4-3c2.5,0,3.7,1.4,3.7,3.4c0,1.7-0.9,3-3.9,5.9
			c-0.6,0.5-1.4,1.4-2.3,2.2H14.1z"/>
		<path d="M14,124.3c0,2-1.7,3.3-4,3.3c-2.4,0-4.1-1.1-4.1-3.1c0-1.5,1-2.5,2.9-3.4c-1.7-0.9-2.4-2.1-2.4-3.5c0-2,1.6-3.3,3.7-3.3
			c2.1,0,3.4,1.3,3.4,3c0,1-0.6,2.1-2.4,3.1C13,121.5,14,122.6,14,124.3z M12.4,124.5c0-1.2-0.7-1.9-3-3c-1.3,0.8-1.9,1.5-1.9,2.9
			c0,1.6,1,2.6,2.5,2.6C11.4,126.9,12.4,125.9,12.4,124.5z M10.4,120.3c1.1-0.9,1.6-1.7,1.6-2.8c0-1.3-0.7-2.3-2-2.3
			c-1.2,0-2.2,0.8-2.2,2.1C7.8,118.3,8.3,119.3,10.4,120.3z"/>
		<path d="M14,147.7c0,2-1.7,3.3-4,3.3c-2.4,0-4.1-1.1-4.1-3.1c0-1.5,1-2.5,2.9-3.4c-1.7-0.9-2.4-2.1-2.4-3.5c0-2,1.6-3.3,3.7-3.3
			c2.1,0,3.4,1.3,3.4,3c0,1-0.6,2.1-2.4,3.1C13,144.9,14,146,14,147.7z M12.4,147.9c0-1.2-0.7-1.9-3-3c-1.3,0.8-1.9,1.5-1.9,2.9
			c0,1.6,1,2.6,2.5,2.6C11.4,150.3,12.4,149.3,12.4,147.9z M10.4,143.7c1.1-0.9,1.6-1.7,1.6-2.8c0-1.3-0.7-2.3-2-2.3
			c-1.2,0-2.2,0.8-2.2,2.1C7.8,141.7,8.3,142.7,10.4,143.7z"/>
		<path d="M14.1,196.1v1.5H6v-1.2c1.1-1.1,2.1-2.2,3-3.1c2-2.1,2.8-3.6,2.8-5.2c0-1.6-0.9-2.7-2.4-2.7c-0.3,0-0.7,0-1.1,0.1
			l-0.4,1.4c-0.2,0.9-0.6,1.2-1.1,1.2c-0.4,0-0.8-0.2-1-0.6c0.3-2,2-3,4-3c2.5,0,3.7,1.4,3.7,3.4c0,1.7-0.9,3-3.9,5.9
			c-0.6,0.5-1.4,1.4-2.3,2.2H14.1z"/>
		<path d="M7.7,213.3c0.6-0.2,1.3-0.3,2-0.3c2.6,0,4.3,1.4,4.3,4c0,2.5-1.8,4.2-4.6,4.2c-2,0-3.3-0.9-3.7-2.7
			c0.2-0.4,0.5-0.6,0.9-0.6c0.6,0,0.8,0.3,1.1,1.2l0.3,1.2c0.4,0.1,0.8,0.2,1.2,0.2c2,0,3-1.3,3-3.3c0-2.1-1.2-3.1-3.1-3.1
			c-0.6,0-1.3,0.1-1.9,0.3l-0.5-0.1l0.4-5.9h6.4v1.5H8L7.7,213.3z"/>
		<path d="M7.7,260.1c0.6-0.2,1.3-0.3,2-0.3c2.6,0,4.3,1.4,4.3,4c0,2.5-1.8,4.2-4.6,4.2c-2,0-3.3-0.9-3.7-2.7
			c0.2-0.4,0.5-0.6,0.9-0.6c0.6,0,0.8,0.3,1.1,1.2l0.3,1.2c0.4,0.1,0.8,0.2,1.2,0.2c2,0,3-1.3,3-3.3c0-2.1-1.2-3.1-3.1-3.1
			c-0.6,0-1.3,0.1-1.9,0.3L6.8,261l0.4-5.9h6.4v1.5H8L7.7,260.1z"/>
		<path d="M14,278.5v1l-4.6,11.8H7.8L7.6,291l5.3-11H6v-1.5H14z"/>
		<path d="M14.6,310.7h-2.1v3.9h-1.6v-3.9H5.5v-1l5.8-8.1h1.1v7.9h2.1V310.7z M10.9,309.6v-6.1l-4.4,6.1H10.9z"/>
		<path d="M7.7,330.3c0.6-0.2,1.3-0.3,2-0.3c2.6,0,4.3,1.4,4.3,4c0,2.5-1.8,4.2-4.6,4.2c-2,0-3.3-0.9-3.7-2.7
			c0.2-0.4,0.5-0.6,0.9-0.6c0.6,0,0.8,0.3,1.1,1.2l0.3,1.2c0.4,0.1,0.8,0.2,1.2,0.2c2,0,3-1.3,3-3.3c0-2.1-1.2-3.1-3.1-3.1
			c-0.6,0-1.3,0.1-1.9,0.3l-0.5-0.1l0.4-5.9h6.4v1.5H8L7.7,330.3z"/>
	</g>
</g>
</svg>
